
<svg width="73px" height="92px" viewBox="0 0 73 92" version="1.1" xmlns="http://www.w3.org/2000/svg" xmlns:xlink="http://www.w3.org/1999/xlink">
    <!-- Generator: Sketch 46.2 (44496) - http://www.bohemiancoding.com/sketch -->
    <desc>Created with Sketch.</desc>
    <defs>
        <polygon id="path-1" points="0 46 0 0 73 0 73 46 73 92 0 92"></polygon>
    </defs>
    <g id="Page-1" stroke="none" stroke-width="1" fill="none" fill-rule="evenodd">
        <g id="Desktop-HD" transform="translate(-328.000000, -561.000000)">
            <g id="Group" transform="translate(284.000000, 496.000000)">
                <g id="Page-1" transform="translate(44.000000, 65.000000)">
                    <mask id="mask-2" fill="white">
                        <use xlink:href="#path-1"></use>
                    </mask>
                    <g id="Clip-2"></g>
                    <path d="M36.5,46 C16.279,46 0,57.0956842 0,70.2105263 L0,92 L73,92 L73,70.2105263 C73,57.0968947 56.721,46 36.5,46 M36.5,0 C26.4211333,0 18.25,8.12989474 18.25,18.1578947 C18.25,28.1858947 26.4211333,36.3157895 36.5,36.3157895 C46.5788667,36.3157895 54.75,28.1858947 54.75,18.1578947 C54.75,8.12989474 46.5788667,0 36.5,0" id="Fill-1" fill="#FBFBFB" mask="url(#mask-2)"></path>
                </g>
            </g>
        </g>
    </g>
</svg>