
<svg width="120px" height="137px" viewBox="0 0 120 137" version="1.1" xmlns="http://www.w3.org/2000/svg" xmlns:xlink="http://www.w3.org/1999/xlink">
    <!-- Generator: Sketch 46.2 (44496) - http://www.bohemiancoding.com/sketch -->
    <desc>Created with Sketch.</desc>
    <defs>
        <polygon id="path-1" points="119.217234 0.396666667 0 0.396666667 0 4.39583333 119.217234 4.39583333 119.217234 0.396666667"></polygon>
    </defs>
    <g id="Page-1" stroke="none" stroke-width="1" fill="none" fill-rule="evenodd">
        <g id="Desktop-Home-Copy-5" transform="translate(-660.000000, -43.000000)">
            <g id="Group-2" transform="translate(660.000000, 43.000000)">
                <g id="Page-1">
                    <path d="M60.0030773,86.6850957 C72.8937771,86.6850957 83.3103488,97.1021649 83.3103488,110.004603 C83.3103488,122.90704 72.8937771,133.321041 60.0030773,133.321041 C47.1123775,133.321041 36.6958058,122.90704 36.6958058,110.004603 C36.6958058,97.1021649 47.1123775,86.6850957 60.0030773,86.6850957 M60.0030773,83 C45.1090723,83 33,95.1169385 33,110.004603 C33,124.889198 45.1090723,137 60.0030773,137 C74.8970823,137 87,124.889198 87,110.004603 C87,95.1169385 74.8970823,83 60.0030773,83" id="Fill-1" fill="#FFFFFF"></path>
                    <path d="M60,96.7803468 C67.8633409,96.7803468 74.2027051,103.124015 74.2027051,111 C74.2027051,118.875985 67.8633409,125.213347 60,125.213347 C52.1366591,125.213347 45.7909714,118.875985 45.7909714,111 C45.7909714,103.124015 52.1366591,96.7803468 60,96.7803468 M60,93 C50.0783418,93 42,101.084078 42,111 C42,120.912769 50.0783418,129 60,129 C69.9216582,129 78,120.912769 78,111 C78,101.084078 69.9216582,93 60,93" id="Fill-3" fill="#FFFFFF"></path>
                    <path d="M44.8445293,72.0123325 L43,72.0123325 L43,73.8498694 L43,88.0599495 C43,90.5295251 46.6829306,90.5295251 46.6829306,88.0599495 L46.6829306,75.6966557 L73.3244291,75.6966557 L73.3244291,88.0784482 C73.226381,90.6405173 77.0962157,90.6405173 76.9981676,88.0784482 L76.9981676,73.8498694 C76.9981676,72.8293581 76.1770151,72.0030831 75.1628304,72 L44.8445293,72.0123325 Z" id="Fill-5" fill="#FFFFFF"></path>
                    <path d="M118.089288,0 C117.615481,0.0124522364 117.160254,0.208574959 116.825802,0.5478984 L59.5539863,58.2920315 C58.8231467,59.0173742 58.8138564,60.1972236 59.5354057,60.9319056 C60.256955,61.6665875 61.4368275,61.6759267 62.1645704,60.9474709 C62.1707639,60.9412448 62.1769575,60.9350186 62.183151,60.9287925 L116.280769,6.39111031 L116.280769,28.9794671 L74.7994254,73.8199702 C74.0809729,74.5546522 74.0871664,75.7376146 74.8180061,76.4629574 C75.5519425,77.1851871 76.7287182,77.178961 77.4471708,76.444279 C77.4750418,76.4162615 77.499816,76.388244 77.5214934,76.3602264 L119.504515,30.9842771 C119.823484,30.6387276 120,30.1842209 120,29.714149 L120,1.86783545 C120,0.834299836 119.170063,0 118.141933,0 L118.089288,0 Z" id="Fill-7" fill="#FFFFFF"></path>
                    <path d="M3.75145025,6.39473573 L70.6153503,73.2654089 L45.0361446,73.2654089 L3.75145025,28.9953973 L3.75145025,6.39473573 Z M1.84917448,0.000143905704 C0.824631861,0.0157176802 0,0.847357241 0,1.86899685 L0,29.7304795 C0,30.2039223 0.178045515,30.6586765 0.499776885,31.0012995 L42.8464971,76.4050818 C43.1994645,76.7850819 43.6992414,77 44.2177599,77 L75.1258367,77 C76.1597501,77 77,76.1652457 77,75.1311471 C77,74.6390158 76.8063365,74.1624583 76.453369,73.8136057 L3.20169567,0.54834077 C2.84248104,0.190143955 2.35519857,-0.00608560411 1.84917448,0.000143905704 L1.84917448,0.000143905704 Z" id="Fill-9" fill="#FFFFFF"></path>
                    <g id="Group-13">
                        <mask id="mask-2" fill="white">
                            <use xlink:href="#path-1"></use>
                        </mask>
                        <g id="Clip-12"></g>
                        <path d="M1.94067766,0.396666667 C0.910091575,0.353333333 0.0414102564,1.21333333 0.000934065934,2.32 C-0.0395421245,3.42333333 0.766868132,4.35333333 1.79745421,4.39333333 C1.84415751,4.39666667 1.89086081,4.39666667 1.94067766,4.39333333 L117.276026,4.39333333 C118.306612,4.43666667 119.175293,3.57666667 119.215769,2.47333333 C119.256245,1.37 118.452949,0.44 117.422363,0.396666667 C117.372546,0.396666667 117.325842,0.396666667 117.276026,0.396666667 L1.94067766,0.396666667 Z" id="Fill-11" fill="#FFFFFF" mask="url(#mask-2)"></path>
                    </g>
                    <path d="M21.930555,20.0019599 C20.905622,19.9478032 20.0417057,21.0226057 20.0014515,22.405685 C19.9611973,23.7845983 20.7631842,24.9468848 21.7881172,24.9968756 C21.8345643,25.0010415 21.8810114,25.0010415 21.930555,24.9968756 L96.0694397,24.9968756 C97.0943727,25.0510323 97.9613855,23.9762298 97.9985432,22.5973164 C98.0387973,21.2184031 97.239907,20.0561166 96.214974,20.0019599 C96.1685268,20.0019599 96.1189833,20.0019599 96.0694397,20.0019599 L21.930555,20.0019599 Z" id="Fill-14" fill="#FFFFFF"></path>
                </g>
                <polygon id="Star" fill="#F4D188" points="60.1140333 116.437694 55.2402379 119 56.17105 113.572949 52.2280666 109.72949 57.6771356 108.937694 60.1140333 104 62.550931 108.937694 68 109.72949 64.0570167 113.572949 64.9878288 119"></polygon>
            </g>
        </g>
    </g>
</svg>