
<svg width="20px" height="20px" viewBox="0 0 20 20" version="1.1" xmlns="http://www.w3.org/2000/svg" xmlns:xlink="http://www.w3.org/1999/xlink">
    <!-- Generator: Sketch 46.2 (44496) - http://www.bohemiancoding.com/sketch -->
    <desc>Created with Sketch.</desc>
    <defs></defs>
    <g id="Page-1" stroke="none" stroke-width="1" fill="none" fill-rule="evenodd">
        <g id="Desktop-Home-Copy-5" transform="translate(-502.000000, -311.000000)" fill="#A7A7A7">
            <g id="Search-bar" transform="translate(490.000000, 295.000000)">
                <g id="noun_929174_cc-copy" transform="translate(12.000000, 16.000000)">
                    <g id="Group">
                        <path d="M19.6717067,18.8073964 L14.3900481,13.5106903 C15.6535096,12.0290533 16.3443029,10.1657791 16.3443029,8.19532544 C16.3443029,6.00617357 15.4940625,3.94828402 13.950649,2.40047337 C12.4070192,0.852445759 10.3547596,0 8.17204327,0 C5.98911058,0 3.93706731,0.852662722 2.39365385,2.40047337 C0.850024038,3.94828402 0,6.00617357 0,8.19532544 C0,10.3844773 0.850240385,12.4423669 2.39365385,13.9903945 C3.93706731,15.5384221 5.98911058,16.3908679 8.17204327,16.3908679 C10.136899,16.3908679 11.9946635,15.6981065 13.4723077,14.4310454 L18.7539663,19.7277515 C18.8807452,19.8548915 19.046899,19.9184615 19.2128365,19.9184615 C19.378774,19.9184615 19.5449279,19.8548915 19.6717067,19.7277515 C19.9252644,19.4739053 19.9252644,19.0616765 19.6717067,18.8073964 Z M8.17204327,15.0893097 C6.33591346,15.0893097 4.6096875,14.3720316 3.31139423,13.0700394 C2.01288462,11.7678304 1.29786058,10.0366864 1.29786058,8.19532544 C1.29786058,6.3539645 2.01288462,4.62282051 3.31139423,3.3208284 C4.6096875,2.01883629 6.33569712,1.30155819 8.17204327,1.30155819 C10.0079567,1.30155819 11.734399,2.01883629 13.0329087,3.32104536 C14.3312019,4.62282051 15.0464423,6.3539645 15.0464423,8.19532544 C15.0464423,10.0366864 14.3312019,11.7678304 13.0329087,13.0700394 C11.734399,14.3720316 10.0079567,15.0893097 8.17204327,15.0893097 Z" id="Shape"></path>
                    </g>
                </g>
            </g>
        </g>
    </g>
</svg>