
<svg width="402px" height="35px" viewBox="0 0 402 35" version="1.1" xmlns="http://www.w3.org/2000/svg" xmlns:xlink="http://www.w3.org/1999/xlink">
    <!-- Generator: Sketch 46.2 (44496) - http://www.bohemiancoding.com/sketch -->
    <desc>Created with Sketch.</desc>
    <defs></defs>
    <g id="Page-1" stroke="none" stroke-width="1" fill="none" fill-rule="evenodd">
        <g id="Desktop-HD-Copy" transform="translate(-519.000000, -13.000000)">
            <g id="Page-1" transform="translate(519.000000, 13.000000)">
                <path d="M12.3289132,32.3633981 C12.3289132,32.9629352 12.1963997,33.3971944 11.933284,33.6642315 C11.6695312,33.9325648 11.243322,34.0667315 10.6546564,34.0667315 L3.58557242,34.0667315 C2.99626973,34.0667315 2.57006054,33.9325648 2.30694485,33.6642315 C2.04255499,33.3971944 1.91131569,32.9629352 1.91131569,32.3633981 L1.91131569,27.300713 C1.91131569,25.8501574 2.03490998,24.7619167 2.28337274,24.0359907 C2.53119842,23.310713 2.99626973,22.4590463 3.67858669,21.4809907 L7.44566434,16.3236759 L3.67858669,11.1663611 C2.96505261,10.1889537 2.49297338,9.33728704 2.26043772,8.61136111 C2.02790206,7.88608333 1.91131569,6.79784259 1.91131569,5.34663889 L1.91131569,1.70339815 C1.91131569,1.10450926 2.04255499,0.670898148 2.30694485,0.401916667 C2.57006054,0.134231481 2.99626973,6.48148148e-05 3.58557242,6.48148148e-05 L10.7476707,6.48148148e-05 C11.3363363,6.48148148e-05 11.7625455,0.134231481 12.0262983,0.401916667 C12.2894139,0.670898148 12.4219274,1.10450926 12.4219274,1.70339815 L12.4219274,4.96812037 C12.4219274,5.28376852 12.4372174,5.61497222 12.4684345,5.96173148 C12.4990146,6.30913889 12.623246,6.64034259 12.8404916,6.95534259 L14.8868054,9.93617593 C15.0416168,10.1889537 15.2047103,10.3853426 15.3754488,10.5279352 C15.5449132,10.6692315 15.7545138,10.7405278 16.0029765,10.7405278 L16.5610621,10.7405278 C16.8088878,10.7405278 17.0102063,10.6692315 17.1656548,10.5279352 C17.3204662,10.3853426 17.4912048,10.1889537 17.6772333,9.93617593 L19.7700542,6.95534259 C19.9866628,6.64034259 20.1108941,6.30913889 20.1421113,5.96173148 C20.1726913,5.61497222 20.1886184,5.28376852 20.1886184,4.96812037 L20.1886184,1.70339815 C20.1886184,1.10450926 20.3198577,0.670898148 20.5842475,0.401916667 C20.8473632,0.134231481 21.2735724,6.48148148e-05 21.8628751,6.48148148e-05 L28.9319591,6.48148148e-05 C29.5206247,6.48148148e-05 29.9468339,0.134231481 30.2105867,0.401916667 C30.4737024,0.670898148 30.6062158,1.10450926 30.6062158,1.70339815 L30.6062158,5.34663889 C30.6062158,6.79784259 30.4819845,7.88608333 30.2341588,8.61136111 C29.985696,9.33728704 29.5206247,10.1889537 28.8389448,11.1663611 L25.0718672,16.3709907 L28.8389448,21.4809907 C29.5518418,22.4590463 30.0245582,23.310713 30.2577309,24.0359907 C30.4896295,24.7619167 30.6062158,25.8501574 30.6062158,27.300713 L30.6062158,32.3633981 C30.6062158,32.9629352 30.4737024,33.3971944 30.2105867,33.6642315 C29.9468339,33.9325648 29.5206247,34.0667315 28.9319591,34.0667315 L21.8628751,34.0667315 C21.2735724,34.0667315 20.8473632,33.9325648 20.5842475,33.6642315 C20.3198577,33.3971944 20.1886184,32.9629352 20.1886184,32.3633981 L20.1886184,27.6792315 C20.1886184,27.3642315 20.1726913,27.0330278 20.1421113,26.6856204 C20.1108941,26.3388611 19.9866628,26.0076574 19.7700542,25.6920093 L17.7237404,22.7111759 C17.5377119,22.427287 17.3669734,22.2224722 17.212162,22.0960833 C17.0567135,21.9703426 16.8553949,21.9068241 16.6075693,21.9068241 L15.9564694,21.9068241 C15.7080067,21.9068241 15.5066881,21.9703426 15.3518767,22.0960833 C15.1964282,22.2224722 15.0263268,22.427287 14.8402983,22.7111759 L12.7474773,25.6920093 C12.5302317,26.0076574 12.4060003,26.3388611 12.3754203,26.6856204 C12.3442032,27.0330278 12.3289132,27.3642315 12.3289132,27.6792315 L12.3289132,32.3633981 Z" id="Fill-1" fill="#FFFFFF"></path>
                <path d="M46.294664,17.1389167 L46.294664,21.9345648 L49.1042044,21.9345648 C49.707523,21.9345648 50.1031521,21.7757685 50.2904548,21.4581759 C50.4777575,21.1405833 50.5714089,20.7808611 50.5714089,20.3783611 L50.5714089,18.6951204 C50.5714089,18.2932685 50.4777575,17.9328981 50.2904548,17.6153056 C50.1031521,17.297713 49.707523,17.1389167 49.1042044,17.1389167 L46.294664,17.1389167 Z M45.2332821,34.0666019 L40.3946292,34.0666019 C39.999,34.0666019 39.7129493,33.9771574 39.536477,33.7969722 C39.3593677,33.616787 39.270813,33.3257685 39.270813,32.9232685 L39.270813,12.3432685 C39.270813,11.9414167 39.3593677,11.6503981 39.536477,11.470213 C39.7129493,11.2906759 39.999,11.1999352 40.3946292,11.1999352 L49.9470666,11.1999352 C52.7769937,11.1999352 54.7124548,11.7716019 55.7534501,12.9149352 C56.7938082,14.0582685 57.3143059,15.5509537 57.3143059,17.3929907 L57.3143059,21.4581759 C57.3143059,23.300213 56.7938082,24.7928981 55.7534501,25.9362315 C54.7124548,27.0795648 52.7769937,27.6512315 49.9470666,27.6512315 L46.3570983,27.6512315 L46.3570983,32.9232685 C46.3570983,33.3257685 46.2685436,33.616787 46.0920713,33.7969722 C45.914962,33.9771574 45.6289113,34.0666019 45.2332821,34.0666019 L45.2332821,34.0666019 Z" id="Fill-3" fill="#FFFFFF"></path>
                <path d="M70.1131322,16.9167315 L70.1131322,20.9819167 L72.4544158,20.9819167 C72.9953002,20.9819167 73.3597122,20.8386759 73.5470149,20.5528426 C73.7343176,20.2670093 73.8279689,19.9131204 73.8279689,19.4892315 L73.8279689,18.4094167 C73.8279689,17.9861759 73.7343176,17.6316389 73.5470149,17.3458056 C73.3597122,17.0599722 72.9953002,16.9167315 72.4544158,16.9167315 L70.1131322,16.9167315 Z M68.989316,34.0667315 L64.1818802,34.0667315 C63.786251,34.0667315 63.5002003,33.9766389 63.323091,33.7964537 C63.1459816,33.6169167 63.058064,33.3258981 63.058064,32.9233981 L63.058064,12.3433981 C63.058064,11.9415463 63.1459816,11.6505278 63.323091,11.4703426 C63.5002003,11.2901574 63.786251,11.2000648 64.1818802,11.2000648 L74.5771797,11.2000648 C76.907633,11.2000648 78.5149959,11.6920093 79.4005426,12.6765463 C80.2841781,13.6617315 80.7269515,14.937287 80.7269515,16.5038611 L80.7269515,17.964787 C80.7269515,18.8540463 80.5969864,19.6110833 80.336419,20.2358981 C80.0764887,20.8600648 79.623522,21.3105278 78.978793,21.5853426 C80.1026092,21.7123796 81.0123651,22.1783981 81.7106092,22.98275 C82.406942,23.78775 82.756064,24.8565463 82.756064,26.1904352 L82.756064,32.9233981 C82.756064,33.3258981 82.6675094,33.6169167 82.4904,33.7964537 C82.3132906,33.9766389 82.0272399,34.0667315 81.6322479,34.0667315 L76.7935949,34.0667315 C76.3979658,34.0667315 76.1119151,33.9766389 75.9348057,33.7964537 C75.7576964,33.6169167 75.6697788,33.3258981 75.6697788,32.9233981 L75.6697788,28.0642315 C75.6697788,27.5988611 75.5812241,27.2540463 75.4047518,27.0317315 C75.2270054,26.8100648 74.920568,26.6985833 74.4835284,26.6985833 L70.1131322,26.6985833 L70.1131322,32.9233981 C70.1131322,33.3258981 70.0239404,33.6169167 69.8474681,33.7964537 C69.6709959,33.9766389 69.3843081,34.0667315 68.989316,34.0667315 L68.989316,34.0667315 Z" id="Fill-5" fill="#FFFFFF"></path>
                <path d="M104.35799,34.0667315 L89.8732479,34.0667315 C89.4776187,34.0667315 89.191568,33.9766389 89.0150957,33.7964537 C88.8379864,33.6169167 88.7494317,33.3258981 88.7494317,32.9233981 L88.7494317,12.3433981 C88.7494317,11.9415463 88.8379864,11.6505278 89.0150957,11.4703426 C89.191568,11.2901574 89.4776187,11.2000648 89.8732479,11.2000648 L104.35799,11.2000648 C104.752982,11.2000648 105.039669,11.2901574 105.216779,11.4703426 C105.393251,11.6505278 105.481806,11.9415463 105.481806,12.3433981 L105.481806,16.0592315 C105.481806,16.4617315 105.393251,16.75275 105.216779,16.932287 C105.039669,17.1124722 104.752982,17.2025648 104.35799,17.2025648 L95.7420656,17.2025648 L95.7420656,19.6480278 L101.829403,19.6480278 C102.224395,19.6480278 102.511083,19.7387685 102.687555,19.9176574 C102.864665,20.0978426 102.953219,20.3895093 102.953219,20.7913611 L102.953219,24.1896019 C102.953219,24.5921019 102.864665,24.8837685 102.687555,25.0626574 C102.511083,25.2428426 102.224395,25.3329352 101.829403,25.3329352 L95.7420656,25.3329352 L95.7420656,28.0642315 L104.35799,28.0642315 C104.752982,28.0642315 105.039669,28.1543241 105.216779,28.3338611 C105.393251,28.5146944 105.481806,28.805713 105.481806,29.2075648 L105.481806,32.9233981 C105.481806,33.3258981 105.393251,33.6169167 105.216779,33.7964537 C105.039669,33.9766389 104.752982,34.0667315 104.35799,34.0667315" id="Fill-7" fill="#FFFFFF"></path>
                <path d="M122.088993,34.0667315 L112.224384,34.0667315 C111.828755,34.0667315 111.542704,33.9766389 111.365595,33.7964537 C111.189123,33.6169167 111.100568,33.3258981 111.100568,32.9233981 L111.100568,29.2075648 C111.100568,28.805713 111.189123,28.5146944 111.365595,28.3338611 C111.542704,28.1543241 111.828755,28.0642315 112.224384,28.0642315 L120.621788,28.0642315 C120.891912,28.0642315 121.094505,27.974787 121.230203,27.7939537 C121.365902,27.6144167 121.433433,27.397287 121.433433,27.143213 C121.433433,26.7834907 121.365902,26.5190463 121.230203,26.3492315 C121.094505,26.1800648 120.891912,26.084787 120.621788,26.0633981 L115.939221,25.3964537 C114.48221,25.1851574 113.311887,24.69775 112.426977,23.9355278 C111.542704,23.1733056 111.100568,21.9029352 111.100568,20.1244167 L111.100568,16.7896944 C111.100568,14.9904352 111.672669,13.6092315 112.817509,12.6454352 C113.961712,11.6816389 115.543592,11.2000648 117.562511,11.2000648 L126.303303,11.2000648 C126.698295,11.2000648 126.984983,11.2901574 127.161455,11.4703426 C127.338565,11.6505278 127.427119,11.9415463 127.427119,12.3433981 L127.427119,16.12275 C127.427119,16.52525 127.338565,16.8162685 127.161455,16.9964537 C126.984983,17.1759907 126.698295,17.2660833 126.303303,17.2660833 L119.029715,17.2660833 C118.758955,17.2660833 118.550628,17.3561759 118.405373,17.5363611 C118.259481,17.7158981 118.186853,17.9440463 118.186853,18.2188611 C118.186853,18.4943241 118.259481,18.7270093 118.405373,18.9175648 C118.550628,19.1081204 118.758955,19.2144167 119.029715,19.2351574 L123.681066,19.8703426 C125.13744,20.082287 126.313497,20.5690463 127.2086,21.3312685 C128.103066,22.0934907 128.550936,23.3638611 128.550936,25.1423796 L128.550936,28.4771019 C128.550936,30.2770093 127.9731,31.658213 126.818067,32.6220093 C125.663034,33.5851574 124.086888,34.0667315 122.088993,34.0667315" id="Fill-9" fill="#FFFFFF"></path>
                <path d="M144.721656,34.0667315 L134.857048,34.0667315 C134.461419,34.0667315 134.175368,33.9766389 133.998259,33.7964537 C133.821786,33.6169167 133.733232,33.3258981 133.733232,32.9233981 L133.733232,29.2075648 C133.733232,28.805713 133.821786,28.5146944 133.998259,28.3338611 C134.175368,28.1543241 134.461419,28.0642315 134.857048,28.0642315 L143.254452,28.0642315 C143.524576,28.0642315 143.727168,27.974787 143.862867,27.7939537 C143.998566,27.6144167 144.066097,27.397287 144.066097,27.143213 C144.066097,26.7834907 143.998566,26.5190463 143.862867,26.3492315 C143.727168,26.1800648 143.524576,26.084787 143.254452,26.0633981 L138.571885,25.3964537 C137.114874,25.1851574 135.94455,24.69775 135.059641,23.9355278 C134.175368,23.1733056 133.733232,21.9029352 133.733232,20.1244167 L133.733232,16.7896944 C133.733232,14.9904352 134.305333,13.6092315 135.450173,12.6454352 C136.594376,11.6816389 138.176255,11.2000648 140.195175,11.2000648 L148.935967,11.2000648 C149.330959,11.2000648 149.617647,11.2901574 149.794119,11.4703426 C149.971229,11.6505278 150.059783,11.9415463 150.059783,12.3433981 L150.059783,16.12275 C150.059783,16.52525 149.971229,16.8162685 149.794119,16.9964537 C149.617647,17.1759907 149.330959,17.2660833 148.935967,17.2660833 L141.662379,17.2660833 C141.391618,17.2660833 141.183292,17.3561759 141.038037,17.5363611 C140.892145,17.7158981 140.819517,17.9440463 140.819517,18.2188611 C140.819517,18.4943241 140.892145,18.7270093 141.038037,18.9175648 C141.183292,19.1081204 141.391618,19.2144167 141.662379,19.2351574 L146.313729,19.8703426 C147.770103,20.082287 148.94616,20.5690463 149.841263,21.3312685 C150.735729,22.0934907 151.183599,23.3638611 151.183599,25.1423796 L151.183599,28.4771019 C151.183599,30.2770093 150.605764,31.658213 149.450731,32.6220093 C148.295698,33.5851574 146.719552,34.0667315 144.721656,34.0667315" id="Fill-11" fill="#FFFFFF"></path>
                <path d="M173.627814,17.1389167 L173.627814,21.9345648 L176.437354,21.9345648 C177.040673,21.9345648 177.436939,21.7757685 177.622967,21.4581759 C177.810907,21.1405833 177.904558,20.7808611 177.904558,20.3783611 L177.904558,18.6951204 C177.904558,18.2932685 177.810907,17.9328981 177.622967,17.6153056 C177.436939,17.297713 177.040673,17.1389167 176.437354,17.1389167 L173.627814,17.1389167 Z M172.566432,34.0666019 L167.727142,34.0666019 C167.332787,34.0666019 167.045462,33.9771574 166.869627,33.7969722 C166.692517,33.616787 166.603963,33.3257685 166.603963,32.9232685 L166.603963,12.3432685 C166.603963,11.9414167 166.692517,11.6503981 166.869627,11.470213 C167.045462,11.2906759 167.332787,11.1999352 167.727142,11.1999352 L177.279579,11.1999352 C180.11078,11.1999352 182.045604,11.7716019 183.087237,12.9149352 C184.126958,14.0582685 184.647455,15.5509537 184.647455,17.3929907 L184.647455,21.4581759 C184.647455,23.300213 184.126958,24.7928981 183.087237,25.9362315 C182.045604,27.0795648 180.11078,27.6512315 177.279579,27.6512315 L173.690248,27.6512315 L173.690248,32.9232685 C173.690248,33.3257685 173.601693,33.616787 173.425221,33.7969722 C173.248112,33.9771574 172.962061,34.0666019 172.566432,34.0666019 L172.566432,34.0666019 Z" id="Fill-13" fill="#FFFFFF"></path>
                <path d="M209.527815,28.064037 C209.527815,29.0382037 209.38702,29.9222778 209.106703,30.7162593 C208.825112,31.5102407 208.325638,32.1882037 207.607644,32.7488519 C206.88965,33.3101481 205.90663,33.7489444 204.657945,34.066537 C203.409261,34.3841296 201.817188,34.5429259 199.881726,34.5429259 C197.946265,34.5429259 196.354192,34.3841296 195.105508,34.066537 C193.856823,33.7489444 192.873165,33.3101481 192.155172,32.7488519 C191.437178,32.1882037 190.937704,31.5102407 190.657387,30.7162593 C190.375796,29.9222778 190.235638,29.0382037 190.235638,28.064037 L190.235638,12.3432037 C190.235638,11.9413519 190.323555,11.6503333 190.501302,11.4701481 C190.677774,11.2906111 190.963825,11.1998704 191.359454,11.1998704 L196.260541,11.1998704 C196.655533,11.1998704 196.941584,11.2906111 197.118693,11.4701481 C197.295803,11.6503333 197.384357,11.9413519 197.384357,12.3432037 L197.384357,26.8254259 C197.384357,27.2493148 197.540443,27.6038519 197.852614,27.8896852 C198.164785,28.1755185 198.861755,28.3181111 199.944161,28.3181111 C201.046953,28.3181111 201.754753,28.1755185 202.066925,27.8896852 C202.379096,27.6038519 202.535181,27.2493148 202.535181,26.8254259 L202.535181,12.3432037 C202.535181,11.9413519 202.623736,11.6503333 202.800208,11.4701481 C202.977318,11.2906111 203.263368,11.1998704 203.658997,11.1998704 L208.403999,11.1998704 C208.798991,11.1998704 209.085679,11.2906111 209.262788,11.4701481 C209.438623,11.6503333 209.527815,11.9413519 209.527815,12.3432037 L209.527815,28.064037 Z" id="Fill-15" fill="#FFFFFF"></path>
                <path d="M223.200912,24.9201296 L223.200912,28.6677222 L227.259137,28.6677222 C227.654129,28.6677222 227.950373,28.5620741 228.149143,28.3501296 C228.346002,28.1388333 228.44475,27.8212407 228.44475,27.3973519 L228.44475,26.1587407 C228.44475,25.7355 228.346002,25.4230926 228.149143,25.2215185 C227.950373,25.0205926 227.654129,24.9201296 227.259137,24.9201296 L223.200912,24.9201296 Z M223.200912,16.5992037 L223.200912,20.0292037 L225.854367,20.0292037 C226.249359,20.0292037 226.545603,19.9235556 226.744373,19.7116111 C226.941232,19.5003148 227.03998,19.1820741 227.03998,18.7588333 L227.03998,17.8695741 C227.03998,17.4463333 226.941232,17.1287407 226.744373,16.9167963 C226.545603,16.7055 226.249359,16.5992037 225.854367,16.5992037 L223.200912,16.5992037 Z M229.288249,34.0667963 L217.30024,34.0667963 C216.905248,34.0667963 216.61856,33.9767037 216.442725,33.7965185 C216.264978,33.6169815 216.177061,33.325963 216.177061,32.923463 L216.177061,12.343463 C216.177061,11.9416111 216.264978,11.6499444 216.442725,11.4704074 C216.61856,11.2902222 216.905248,11.2001296 217.30024,11.2001296 L227.259137,11.2001296 C229.298443,11.2001296 230.806421,11.5967963 231.785619,12.3907778 C232.763543,13.1854074 233.252186,14.4078148 233.252186,16.0592963 L233.252186,17.5837407 C233.252186,18.473 233.101197,19.1982778 232.799856,19.7589259 C232.498516,20.3202222 232.035356,20.7389259 231.411013,21.0137407 C232.742519,21.1407778 233.731273,21.6067963 234.376639,22.4111481 C235.021368,23.2161481 235.34437,24.3912407 235.34437,25.9364259 L235.34437,28.8582778 C235.34437,30.6367963 234.849356,31.9499444 233.861238,32.7964259 C232.873121,33.6429074 231.348579,34.0667963 229.288249,34.0667963 L229.288249,34.0667963 Z" id="Fill-17" fill="#FFFFFF"></path>
                <path d="M258.31953,34.0667315 L242.430018,34.0667315 C242.034389,34.0667315 241.747701,33.9766389 241.571866,33.7964537 C241.394757,33.6169167 241.306202,33.3258981 241.306202,32.9233981 L241.306202,12.3433981 C241.306202,11.9415463 241.394757,11.6505278 241.571866,11.4703426 C241.747701,11.2901574 242.034389,11.2000648 242.430018,11.2000648 L247.268671,11.2000648 C247.663663,11.2000648 247.950351,11.2901574 248.12746,11.4703426 C248.303295,11.6505278 248.392487,11.9415463 248.392487,12.3433981 L248.392487,28.0642315 L252.669232,28.0642315 L252.669232,22.9192315 C252.669232,22.5173796 252.757787,22.225713 252.934896,22.0461759 C253.111368,21.8659907 253.397419,21.7758981 253.793685,21.7758981 L258.31953,21.7758981 C258.714522,21.7758981 259.000573,21.8659907 259.178319,22.0461759 C259.354791,22.225713 259.443346,22.5173796 259.443346,22.9192315 L259.443346,32.9233981 C259.443346,33.3258981 259.354791,33.6169167 259.178319,33.7964537 C259.000573,33.9766389 258.714522,34.0667315 258.31953,34.0667315" id="Fill-19" fill="#FFFFFF"></path>
                <path d="M266.123809,34.0667315 C265.72818,34.0667315 265.442129,33.9766389 265.26502,33.7964537 C265.08791,33.6169167 264.999356,33.3258981 264.999356,32.9233981 L264.999356,29.1440463 C264.999356,28.7421944 265.08791,28.4505278 265.26502,28.2709907 C265.442129,28.0908056 265.72818,28.000713 266.123809,28.000713 L269.214303,28.000713 L269.214303,17.3296019 L266.123809,17.3296019 C265.72818,17.3296019 265.442129,17.2401574 265.26502,17.0599722 C265.08791,16.879787 264.999356,16.5887685 264.999356,16.1862685 L264.999356,12.3433981 C264.999356,11.9415463 265.08791,11.6505278 265.26502,11.4703426 C265.442129,11.2901574 265.72818,11.2000648 266.123809,11.2000648 L279.4223,11.2000648 C279.817292,11.2000648 280.103343,11.2901574 280.280452,11.4703426 C280.456925,11.6505278 280.546116,11.9415463 280.546116,12.3433981 L280.546116,16.1862685 C280.546116,16.5887685 280.456925,16.879787 280.280452,17.0599722 C280.103343,17.2401574 279.817292,17.3296019 279.4223,17.3296019 L276.39424,17.3296019 L276.39424,28.000713 L279.4223,28.000713 C279.817292,28.000713 280.103343,28.0908056 280.280452,28.2709907 C280.456925,28.4505278 280.546116,28.7421944 280.546116,29.1440463 L280.546116,32.9233981 C280.546116,33.3258981 280.456925,33.6169167 280.280452,33.7964537 C280.103343,33.9766389 279.817292,34.0667315 279.4223,34.0667315 L266.123809,34.0667315 Z" id="Fill-21" fill="#FFFFFF"></path>
                <path d="M297.309198,34.0667315 L287.444589,34.0667315 C287.04896,34.0667315 286.762272,33.9766389 286.5858,33.7964537 C286.409328,33.6169167 286.320773,33.3258981 286.320773,32.9233981 L286.320773,29.2075648 C286.320773,28.805713 286.409328,28.5146944 286.5858,28.3338611 C286.762272,28.1543241 287.04896,28.0642315 287.444589,28.0642315 L295.841993,28.0642315 C296.112117,28.0642315 296.31471,27.974787 296.450409,27.7939537 C296.58547,27.6144167 296.653638,27.397287 296.653638,27.143213 C296.653638,26.7834907 296.58547,26.5190463 296.450409,26.3492315 C296.31471,26.1800648 296.112117,26.084787 295.841993,26.0633981 L291.159426,25.3964537 C289.702415,25.1851574 288.532092,24.69775 287.647182,23.9355278 C286.762272,23.1733056 286.320773,21.9029352 286.320773,20.1244167 L286.320773,16.7896944 C286.320773,14.9904352 286.892874,13.6092315 288.037714,12.6454352 C289.181917,11.6816389 290.763797,11.2000648 292.782716,11.2000648 L301.523508,11.2000648 C301.9185,11.2000648 302.205188,11.2901574 302.382298,11.4703426 C302.558133,11.6505278 302.647325,11.9415463 302.647325,12.3433981 L302.647325,16.12275 C302.647325,16.52525 302.558133,16.8162685 302.382298,16.9964537 C302.205188,17.1759907 301.9185,17.2660833 301.523508,17.2660833 L294.24992,17.2660833 C293.97916,17.2660833 293.770833,17.3561759 293.625578,17.5363611 C293.479686,17.7158981 293.407058,17.9440463 293.407058,18.2188611 C293.407058,18.4943241 293.479686,18.7270093 293.625578,18.9175648 C293.770833,19.1081204 293.97916,19.2144167 294.24992,19.2351574 L298.901271,19.8703426 C300.357645,20.082287 301.533702,20.5690463 302.428805,21.3312685 C303.323271,22.0934907 303.771141,23.3638611 303.771141,25.1423796 L303.771141,28.4771019 C303.771141,30.2770093 303.193306,31.658213 302.038909,32.6220093 C300.883239,33.5851574 299.307093,34.0667315 297.309198,34.0667315" id="Fill-23" fill="#FFFFFF"></path>
                <path d="M315.633454,34.0667315 L310.794164,34.0667315 C310.399171,34.0667315 310.112484,33.9766389 309.936648,33.7964537 C309.758902,33.6169167 309.670984,33.3258981 309.670984,32.9233981 L309.670984,12.3433981 C309.670984,11.9415463 309.758902,11.6505278 309.936648,11.4703426 C310.112484,11.2901574 310.399171,11.2000648 310.794164,11.2000648 L315.633454,11.2000648 C316.028446,11.2000648 316.314496,11.2901574 316.492243,11.4703426 C316.668078,11.6505278 316.75727,11.9415463 316.75727,12.3433981 L316.75727,19.2351574 L321.969891,19.2351574 L321.969891,12.3433981 C321.969891,11.9415463 322.058446,11.6505278 322.235555,11.4703426 C322.412664,11.2901574 322.698715,11.2000648 323.094344,11.2000648 L327.93236,11.2000648 C328.327989,11.2000648 328.61404,11.2901574 328.791149,11.4703426 C328.967622,11.6505278 329.056176,11.9415463 329.056176,12.3433981 L329.056176,32.9233981 C329.056176,33.3258981 328.967622,33.6169167 328.791149,33.7964537 C328.61404,33.9766389 328.327989,34.0667315 327.93236,34.0667315 L323.094344,34.0667315 C322.698715,34.0667315 322.412664,33.9766389 322.235555,33.7964537 C322.058446,33.6169167 321.969891,33.3258981 321.969891,32.9233981 L321.969891,25.8728426 L316.75727,25.8728426 L316.75727,32.9233981 C316.75727,33.3258981 316.668078,33.6169167 316.492243,33.7964537 C316.314496,33.9766389 316.028446,34.0667315 315.633454,34.0667315" id="Fill-25" fill="#FFFFFF"></path>
                <path d="M336.485786,34.0667315 C336.090157,34.0667315 335.804106,33.9766389 335.626997,33.7964537 C335.450525,33.6169167 335.36197,33.3258981 335.36197,32.9233981 L335.36197,29.1440463 C335.36197,28.7421944 335.450525,28.4505278 335.626997,28.2709907 C335.804106,28.0908056 336.090157,28.000713 336.485786,28.000713 L339.576918,28.000713 L339.576918,17.3296019 L336.485786,17.3296019 C336.090157,17.3296019 335.804106,17.2401574 335.626997,17.0599722 C335.450525,16.879787 335.36197,16.5887685 335.36197,16.1862685 L335.36197,12.3433981 C335.36197,11.9415463 335.450525,11.6505278 335.626997,11.4703426 C335.804106,11.2901574 336.090157,11.2000648 336.485786,11.2000648 L349.784914,11.2000648 C350.179269,11.2000648 350.46532,11.2901574 350.642429,11.4703426 C350.818902,11.6505278 350.908731,11.9415463 350.908731,12.3433981 L350.908731,16.1862685 C350.908731,16.5887685 350.818902,16.879787 350.642429,17.0599722 C350.46532,17.2401574 350.179269,17.3296019 349.784914,17.3296019 L346.756217,17.3296019 L346.756217,28.000713 L349.784914,28.000713 C350.179269,28.000713 350.46532,28.0908056 350.642429,28.2709907 C350.818902,28.4505278 350.908731,28.7421944 350.908731,29.1440463 L350.908731,32.9233981 C350.908731,33.3258981 350.818902,33.6169167 350.642429,33.7964537 C350.46532,33.9766389 350.179269,34.0667315 349.784914,34.0667315 L336.485786,34.0667315 Z" id="Fill-27" fill="#FFFFFF"></path>
                <path d="M363.051679,34.0667315 L358.367837,34.0667315 C357.973482,34.0667315 357.686158,33.9766389 357.510959,33.7964537 C357.332576,33.6169167 357.244658,33.3258981 357.244658,32.9233981 L357.244658,12.3433981 C357.244658,11.9415463 357.332576,11.6505278 357.510959,11.4703426 C357.686158,11.2901574 357.973482,11.2000648 358.367837,11.2000648 L361.615692,11.2000648 C362.010047,11.2000648 362.348338,11.2635833 362.629929,11.3906204 C362.910883,11.5176574 363.186104,11.7399722 363.457501,12.0575648 L369.513622,19.1081204 L369.513622,12.3433981 C369.513622,11.9415463 369.601539,11.6505278 369.778649,11.4703426 C369.955121,11.2901574 370.241172,11.2000648 370.636801,11.2000648 L375.319368,11.2000648 C375.714997,11.2000648 376.001048,11.2901574 376.178158,11.4703426 C376.35463,11.6505278 376.443184,11.9415463 376.443184,12.3433981 L376.443184,32.9233981 C376.443184,33.3258981 376.35463,33.6169167 376.178158,33.7964537 C376.001048,33.9766389 375.714997,34.0667315 375.319368,34.0667315 L370.636801,34.0667315 C370.241172,34.0667315 369.955121,33.9766389 369.778649,33.7964537 C369.601539,33.6169167 369.513622,33.3258981 369.513622,32.9233981 L369.513622,29.0170093 L364.175495,22.4428426 L364.175495,32.9233981 C364.175495,33.3258981 364.08694,33.6169167 363.910468,33.7964537 C363.732085,33.9766389 363.446034,34.0667315 363.051679,34.0667315" id="Fill-29" fill="#FFFFFF"></path>
                <g id="Group-33" transform="translate(382.887480, 10.993630)" fill="#FFFFFF">
                    <path d="M17.530704,23.0731019 L7.69667544,23.0731019 C5.09482441,23.0731019 3.16509699,22.544213 1.90621902,21.4851389 C0.646703962,20.426713 0.0172649762,18.7966204 0.0172649762,16.594213 L0.0172649762,6.68532407 C0.0172649762,4.48356481 0.646703962,2.85347222 1.90621902,1.79439815 C3.16509699,0.735972222 5.09482441,0.206435185 7.69667544,0.206435185 L15.5009544,0.206435185 C15.8972206,0.206435185 16.1832713,0.296527778 16.3597436,0.476712963 C16.5362158,0.656898148 16.6247705,0.947916667 16.6247705,1.34976852 L16.6247705,5.19263889 C16.6247705,5.59513889 16.5362158,5.88615741 16.3597436,6.06634259 C16.1832713,6.24652778 15.8972206,6.33597222 15.5009544,6.33597222 L9.00843138,6.33597222 C8.36242821,6.33597222 7.88461521,6.46819444 7.57244406,6.73328704 C7.2602729,6.99773148 7.10355024,7.3950463 7.10355024,7.92393519 L7.10355024,15.5143981 C7.10355024,16.0439352 7.22268494,16.4354167 7.46286561,16.6894907 C7.70177211,16.9435648 8.0604504,17.0706019 8.53953756,17.0706019 L11.5682349,17.0706019 L11.5682349,12.1161574 C11.5682349,11.7143056 11.6561525,11.4226389 11.8332618,11.2431019 C12.0097341,11.0629167 12.2957848,10.9728241 12.6914139,10.9728241 L17.530704,10.9728241 C17.925059,10.9728241 18.2111097,11.0629167 18.3894932,11.2431019 C18.5659655,11.4226389 18.6545201,11.7143056 18.6545201,12.1161574 L18.6545201,21.9297685 C18.6545201,22.3322685 18.5659655,22.623287 18.3894932,22.8028241 C18.2111097,22.9830093 17.925059,23.0731019 17.530704,23.0731019" id="Fill-31"></path>
                </g>
                <path d="M10.4176612,32.7953889 C10.4176612,33.3949259 10.2851477,33.8291852 10.022032,34.0962222 C9.75827924,34.3645556 9.33207005,34.4987222 8.74340444,34.4987222 L1.67432044,34.4987222 C1.08501775,34.4987222 0.658808558,34.3645556 0.395692868,34.0962222 C0.131303011,33.8291852 6.37083994e-05,33.3949259 6.37083994e-05,32.7953889 L6.37083994e-05,27.7327037 C6.37083994e-05,26.2821481 0.123658003,25.1939074 0.372120761,24.4679815 C0.619946434,23.7427037 1.08501775,22.891037 1.76733471,21.9129815 L5.53441236,16.7556667 L1.76733471,11.5983519 C1.05380063,10.6209444 0.581721395,9.76927778 0.349185737,9.04335185 C0.116650079,8.31807407 6.37083994e-05,7.22983333 6.37083994e-05,5.77862963 L6.37083994e-05,2.13538889 C6.37083994e-05,1.5365 0.131303011,1.10288889 0.395692868,0.833907407 C0.658808558,0.566222222 1.08501775,0.432055556 1.67432044,0.432055556 L8.8364187,0.432055556 C9.42508431,0.432055556 9.8512935,0.566222222 10.1150463,0.833907407 C10.378162,1.10288889 10.5106754,1.5365 10.5106754,2.13538889 L10.5106754,5.40011111 C10.5106754,5.71575926 10.5259655,6.04696296 10.5571826,6.39372222 C10.5877626,6.74112963 10.711994,7.07233333 10.9292396,7.38733333 L12.9755534,10.3681667 C13.1303648,10.6209444 13.2934583,10.8173333 13.4641968,10.9599259 C13.6336612,11.1012222 13.8432618,11.1725185 14.0917246,11.1725185 L14.6498101,11.1725185 C14.8976358,11.1725185 15.0989544,11.1012222 15.2544029,10.9599259 C15.4092143,10.8173333 15.5799528,10.6209444 15.7659813,10.3681667 L17.8588022,7.38733333 C18.0754108,7.07233333 18.1996422,6.74112963 18.2308593,6.39372222 C18.2614393,6.04696296 18.2773664,5.71575926 18.2773664,5.40011111 L18.2773664,2.13538889 C18.2773664,1.5365 18.4086057,1.10288889 18.6729956,0.833907407 C18.9361113,0.566222222 19.3623204,0.432055556 19.9516231,0.432055556 L27.0207071,0.432055556 C27.6093727,0.432055556 28.0355819,0.566222222 28.2993347,0.833907407 C28.5624504,1.10288889 28.6949639,1.5365 28.6949639,2.13538889 L28.6949639,5.77862963 C28.6949639,7.22983333 28.5707325,8.31807407 28.3229068,9.04335185 C28.0744441,9.76927778 27.6093727,10.6209444 26.9276929,11.5983519 L23.1606152,16.8029815 L26.9276929,21.9129815 C27.6405899,22.891037 28.1133062,23.7427037 28.3464789,24.4679815 C28.5783775,25.1939074 28.6949639,26.2821481 28.6949639,27.7327037 L28.6949639,32.7953889 C28.6949639,33.3949259 28.5624504,33.8291852 28.2993347,34.0962222 C28.0355819,34.3645556 27.6093727,34.4987222 27.0207071,34.4987222 L19.9516231,34.4987222 C19.3623204,34.4987222 18.9361113,34.3645556 18.6729956,34.0962222 C18.4086057,33.8291852 18.2773664,33.3949259 18.2773664,32.7953889 L18.2773664,28.1112222 C18.2773664,27.7962222 18.2614393,27.4650185 18.2308593,27.1176111 C18.1996422,26.7708519 18.0754108,26.4396481 17.8588022,26.124 L15.8124884,23.1431667 C15.6264599,22.8592778 15.4557214,22.654463 15.30091,22.5280741 C15.1454615,22.4023333 14.9441429,22.3388148 14.6963173,22.3388148 L14.0452174,22.3388148 C13.7967547,22.3388148 13.5954361,22.4023333 13.4406247,22.5280741 C13.2851762,22.654463 13.1150748,22.8592778 12.9290463,23.1431667 L10.8362254,26.124 C10.6189797,26.4396481 10.4947483,26.7708519 10.4641683,27.1176111 C10.4329512,27.4650185 10.4176612,27.7962222 10.4176612,28.1112222 L10.4176612,32.7953889 Z" id="Fill-34" fill="#00AEEF"></path>
                <path d="M44.383412,17.5709074 L44.383412,22.3665556 L47.1929525,22.3665556 C47.796271,22.3665556 48.1919002,22.2077593 48.3792029,21.8901667 C48.5665055,21.5725741 48.6601569,21.2128519 48.6601569,20.8103519 L48.6601569,19.1271111 C48.6601569,18.7252593 48.5665055,18.3648889 48.3792029,18.0472963 C48.1919002,17.7297037 47.796271,17.5709074 47.1929525,17.5709074 L44.383412,17.5709074 Z M43.3220301,34.4985926 L38.4833772,34.4985926 C38.087748,34.4985926 37.8016973,34.4091481 37.625225,34.228963 C37.4481157,34.0487778 37.359561,33.7577593 37.359561,33.3552593 L37.359561,12.7752593 C37.359561,12.3734074 37.4481157,12.0823889 37.625225,11.9022037 C37.8016973,11.7226667 38.087748,11.6319259 38.4833772,11.6319259 L48.0358146,11.6319259 C50.8657417,11.6319259 52.8012029,12.2035926 53.8421981,13.3469259 C54.8825563,14.4902593 55.4030539,15.9829444 55.4030539,17.8249815 L55.4030539,21.8901667 C55.4030539,23.7322037 54.8825563,25.2248889 53.8421981,26.3682222 C52.8012029,27.5115556 50.8657417,28.0832222 48.0358146,28.0832222 L44.4458463,28.0832222 L44.4458463,33.3552593 C44.4458463,33.7577593 44.3572916,34.0487778 44.1808193,34.228963 C44.00371,34.4091481 43.7176593,34.4985926 43.3220301,34.4985926 L43.3220301,34.4985926 Z" id="Fill-36" fill="#00AEEF"></path>
                <path d="M68.2018802,17.3487222 L68.2018802,21.4139074 L70.5431639,21.4139074 C71.0840482,21.4139074 71.4484602,21.2706667 71.6357629,20.9848333 C71.8230656,20.699 71.916717,20.3451111 71.916717,19.9212222 L71.916717,18.8414074 C71.916717,18.4181667 71.8230656,18.0636296 71.6357629,17.7777963 C71.4484602,17.491963 71.0840482,17.3487222 70.5431639,17.3487222 L68.2018802,17.3487222 Z M67.078064,34.4987222 L62.2706282,34.4987222 C61.874999,34.4987222 61.5889483,34.4086296 61.411839,34.2284444 C61.2347296,34.0489074 61.146812,33.7578889 61.146812,33.3553889 L61.146812,12.7753889 C61.146812,12.373537 61.2347296,12.0825185 61.411839,11.9023333 C61.5889483,11.7221481 61.874999,11.6320556 62.2706282,11.6320556 L72.6659277,11.6320556 C74.996381,11.6320556 76.6037439,12.124 77.4892906,13.108537 C78.3729261,14.0937222 78.8156995,15.3692778 78.8156995,16.9358519 L78.8156995,18.3967778 C78.8156995,19.286037 78.6857344,20.0430741 78.425167,20.6678889 C78.1652368,21.2920556 77.71227,21.7425185 77.067541,22.0173333 C78.1913572,22.1443704 79.1011132,22.6103889 79.7993572,23.4147407 C80.49569,24.2197407 80.844812,25.288537 80.844812,26.6224259 L80.844812,33.3553889 C80.844812,33.7578889 80.7562574,34.0489074 80.579148,34.2284444 C80.4020387,34.4086296 80.115988,34.4987222 79.7209959,34.4987222 L74.8823429,34.4987222 C74.4867138,34.4987222 74.2006631,34.4086296 74.0235537,34.2284444 C73.8464444,34.0489074 73.7585268,33.7578889 73.7585268,33.3553889 L73.7585268,28.4962222 C73.7585268,28.0308519 73.6699721,27.686037 73.4934998,27.4637222 C73.3157534,27.2420556 73.009316,27.1305741 72.5722764,27.1305741 L68.2018802,27.1305741 L68.2018802,33.3553889 C68.2018802,33.7578889 68.1126884,34.0489074 67.9362162,34.2284444 C67.7597439,34.4086296 67.4730561,34.4987222 67.078064,34.4987222 L67.078064,34.4987222 Z" id="Fill-38" fill="#00AEEF"></path>
                <path d="M102.446738,34.4987222 L87.9619959,34.4987222 C87.5663667,34.4987222 87.280316,34.4086296 87.1038437,34.2284444 C86.9267344,34.0489074 86.8381797,33.7578889 86.8381797,33.3553889 L86.8381797,12.7753889 C86.8381797,12.373537 86.9267344,12.0825185 87.1038437,11.9023333 C87.280316,11.7221481 87.5663667,11.6320556 87.9619959,11.6320556 L102.446738,11.6320556 C102.84173,11.6320556 103.128417,11.7221481 103.305527,11.9023333 C103.481999,12.0825185 103.570554,12.373537 103.570554,12.7753889 L103.570554,16.4912222 C103.570554,16.8937222 103.481999,17.1847407 103.305527,17.3642778 C103.128417,17.544463 102.84173,17.6345556 102.446738,17.6345556 L93.8308136,17.6345556 L93.8308136,20.0800185 L99.9181512,20.0800185 C100.313143,20.0800185 100.599831,20.1707593 100.776303,20.3496481 C100.953413,20.5298333 101.041967,20.8215 101.041967,21.2233519 L101.041967,24.6215926 C101.041967,25.0240926 100.953413,25.3157593 100.776303,25.4946481 C100.599831,25.6748333 100.313143,25.7649259 99.9181512,25.7649259 L93.8308136,25.7649259 L93.8308136,28.4962222 L102.446738,28.4962222 C102.84173,28.4962222 103.128417,28.5863148 103.305527,28.7658519 C103.481999,28.9466852 103.570554,29.2377037 103.570554,29.6395556 L103.570554,33.3553889 C103.570554,33.7578889 103.481999,34.0489074 103.305527,34.2284444 C103.128417,34.4086296 102.84173,34.4987222 102.446738,34.4987222" id="Fill-40" fill="#00AEEF"></path>
                <path d="M120.177741,34.4987222 L110.313132,34.4987222 C109.917503,34.4987222 109.631452,34.4086296 109.454343,34.2284444 C109.277871,34.0489074 109.189316,33.7578889 109.189316,33.3553889 L109.189316,29.6395556 C109.189316,29.2377037 109.277871,28.9466852 109.454343,28.7658519 C109.631452,28.5863148 109.917503,28.4962222 110.313132,28.4962222 L118.710536,28.4962222 C118.98066,28.4962222 119.183253,28.4067778 119.318952,28.2259444 C119.45465,28.0464074 119.522181,27.8292778 119.522181,27.5752037 C119.522181,27.2154815 119.45465,26.951037 119.318952,26.7812222 C119.183253,26.6120556 118.98066,26.5167778 118.710536,26.4953889 L114.027969,25.8284444 C112.570958,25.6171481 111.400635,25.1297407 110.515725,24.3675185 C109.631452,23.6052963 109.189316,22.3349259 109.189316,20.5564074 L109.189316,17.2216852 C109.189316,15.4224259 109.761417,14.0412222 110.906257,13.0774259 C112.05046,12.1136296 113.63234,11.6320556 115.651259,11.6320556 L124.392051,11.6320556 C124.787043,11.6320556 125.073731,11.7221481 125.250203,11.9023333 C125.427313,12.0825185 125.515868,12.373537 125.515868,12.7753889 L125.515868,16.5547407 C125.515868,16.9572407 125.427313,17.2482593 125.250203,17.4284444 C125.073731,17.6079815 124.787043,17.6980741 124.392051,17.6980741 L117.118463,17.6980741 C116.847703,17.6980741 116.639376,17.7881667 116.494121,17.9683519 C116.348229,18.1478889 116.275601,18.376037 116.275601,18.6508519 C116.275601,18.9263148 116.348229,19.159 116.494121,19.3495556 C116.639376,19.5401111 116.847703,19.6464074 117.118463,19.6671481 L121.769814,20.3023333 C123.226188,20.5142778 124.402245,21.001037 125.297348,21.7632593 C126.191814,22.5254815 126.639684,23.7958519 126.639684,25.5743704 L126.639684,28.9090926 C126.639684,30.709 126.061848,32.0902037 124.906815,33.054 C123.751782,34.0171481 122.175636,34.4987222 120.177741,34.4987222" id="Fill-42" fill="#00AEEF"></path>
                <path d="M142.810404,34.4987222 L132.945796,34.4987222 C132.550167,34.4987222 132.264116,34.4086296 132.087007,34.2284444 C131.910534,34.0489074 131.82198,33.7578889 131.82198,33.3553889 L131.82198,29.6395556 C131.82198,29.2377037 131.910534,28.9466852 132.087007,28.7658519 C132.264116,28.5863148 132.550167,28.4962222 132.945796,28.4962222 L141.3432,28.4962222 C141.613324,28.4962222 141.815916,28.4067778 141.951615,28.2259444 C142.087314,28.0464074 142.154845,27.8292778 142.154845,27.5752037 C142.154845,27.2154815 142.087314,26.951037 141.951615,26.7812222 C141.815916,26.6120556 141.613324,26.5167778 141.3432,26.4953889 L136.660633,25.8284444 C135.203622,25.6171481 134.033298,25.1297407 133.148389,24.3675185 C132.264116,23.6052963 131.82198,22.3349259 131.82198,20.5564074 L131.82198,17.2216852 C131.82198,15.4224259 132.394081,14.0412222 133.538921,13.0774259 C134.683124,12.1136296 136.265003,11.6320556 138.283923,11.6320556 L147.024715,11.6320556 C147.419707,11.6320556 147.706395,11.7221481 147.882867,11.9023333 C148.059977,12.0825185 148.148531,12.373537 148.148531,12.7753889 L148.148531,16.5547407 C148.148531,16.9572407 148.059977,17.2482593 147.882867,17.4284444 C147.706395,17.6079815 147.419707,17.6980741 147.024715,17.6980741 L139.751127,17.6980741 C139.480366,17.6980741 139.27204,17.7881667 139.126785,17.9683519 C138.980893,18.1478889 138.908265,18.376037 138.908265,18.6508519 C138.908265,18.9263148 138.980893,19.159 139.126785,19.3495556 C139.27204,19.5401111 139.480366,19.6464074 139.751127,19.6671481 L144.402477,20.3023333 C145.858851,20.5142778 147.034908,21.001037 147.930011,21.7632593 C148.824477,22.5254815 149.272347,23.7958519 149.272347,25.5743704 L149.272347,28.9090926 C149.272347,30.709 148.694512,32.0902037 147.539479,33.054 C146.384446,34.0171481 144.8083,34.4987222 142.810404,34.4987222" id="Fill-44" fill="#00AEEF"></path>
                <path d="M171.716562,17.5709074 L171.716562,22.3665556 L174.526102,22.3665556 C175.129421,22.3665556 175.525687,22.2077593 175.711715,21.8901667 C175.899655,21.5725741 175.993306,21.2128519 175.993306,20.8103519 L175.993306,19.1271111 C175.993306,18.7252593 175.899655,18.3648889 175.711715,18.0472963 C175.525687,17.7297037 175.129421,17.5709074 174.526102,17.5709074 L171.716562,17.5709074 Z M170.65518,34.4985926 L165.81589,34.4985926 C165.421535,34.4985926 165.13421,34.4091481 164.958375,34.228963 C164.781265,34.0487778 164.692711,33.7577593 164.692711,33.3552593 L164.692711,12.7752593 C164.692711,12.3734074 164.781265,12.0823889 164.958375,11.9022037 C165.13421,11.7226667 165.421535,11.6319259 165.81589,11.6319259 L175.368327,11.6319259 C178.199528,11.6319259 180.134352,12.2035926 181.175985,13.3469259 C182.215706,14.4902593 182.736203,15.9829444 182.736203,17.8249815 L182.736203,21.8901667 C182.736203,23.7322037 182.215706,25.2248889 181.175985,26.3682222 C180.134352,27.5115556 178.199528,28.0832222 175.368327,28.0832222 L171.778996,28.0832222 L171.778996,33.3552593 C171.778996,33.7577593 171.690441,34.0487778 171.513969,34.228963 C171.33686,34.4091481 171.050809,34.4985926 170.65518,34.4985926 L170.65518,34.4985926 Z" id="Fill-46" fill="#00AEEF"></path>
                <path d="M207.616563,28.4960278 C207.616563,29.4701944 207.475768,30.3542685 207.195451,31.14825 C206.91386,31.9422315 206.414386,32.6201944 205.696392,33.1808426 C204.978398,33.7421389 203.995378,34.1809352 202.746693,34.4985278 C201.498009,34.8161204 199.905936,34.9749167 197.970474,34.9749167 C196.035013,34.9749167 194.44294,34.8161204 193.194256,34.4985278 C191.945571,34.1809352 190.961913,33.7421389 190.24392,33.1808426 C189.525926,32.6201944 189.026452,31.9422315 188.746135,31.14825 C188.464544,30.3542685 188.324386,29.4701944 188.324386,28.4960278 L188.324386,12.7751944 C188.324386,12.3733426 188.412303,12.0823241 188.59005,11.9021389 C188.766522,11.7226019 189.052573,11.6318611 189.448202,11.6318611 L194.349289,11.6318611 C194.744281,11.6318611 195.030332,11.7226019 195.207441,11.9021389 C195.384551,12.0823241 195.473105,12.3733426 195.473105,12.7751944 L195.473105,27.2574167 C195.473105,27.6813056 195.629191,28.0358426 195.941362,28.3216759 C196.253533,28.6075093 196.950503,28.7501019 198.032909,28.7501019 C199.135701,28.7501019 199.843501,28.6075093 200.155673,28.3216759 C200.467844,28.0358426 200.623929,27.6813056 200.623929,27.2574167 L200.623929,12.7751944 C200.623929,12.3733426 200.712484,12.0823241 200.888956,11.9021389 C201.066066,11.7226019 201.352116,11.6318611 201.747745,11.6318611 L206.492747,11.6318611 C206.887739,11.6318611 207.174427,11.7226019 207.351536,11.9021389 C207.527371,12.0823241 207.616563,12.3733426 207.616563,12.7751944 L207.616563,28.4960278 Z" id="Fill-48" fill="#00AEEF"></path>
                <path d="M221.28966,25.3521852 L221.28966,29.0997778 L225.347885,29.0997778 C225.742877,29.0997778 226.039121,28.9941296 226.237891,28.7821852 C226.43475,28.5708889 226.533498,28.2532963 226.533498,27.8294074 L226.533498,26.5907963 C226.533498,26.1675556 226.43475,25.8551481 226.237891,25.6535741 C226.039121,25.4526481 225.742877,25.3521852 225.347885,25.3521852 L221.28966,25.3521852 Z M221.28966,17.0312593 L221.28966,20.4612593 L223.943115,20.4612593 C224.338107,20.4612593 224.634351,20.3556111 224.833121,20.1436667 C225.02998,19.9323704 225.128728,19.6141296 225.128728,19.1908889 L225.128728,18.3016296 C225.128728,17.8783889 225.02998,17.5607963 224.833121,17.3488519 C224.634351,17.1375556 224.338107,17.0312593 223.943115,17.0312593 L221.28966,17.0312593 Z M227.376997,34.4988519 L215.388988,34.4988519 C214.993996,34.4988519 214.707308,34.4087593 214.531473,34.2285741 C214.353726,34.049037 214.265809,33.7580185 214.265809,33.3555185 L214.265809,12.7755185 C214.265809,12.3736667 214.353726,12.082 214.531473,11.902463 C214.707308,11.7222778 214.993996,11.6321852 215.388988,11.6321852 L225.347885,11.6321852 C227.387191,11.6321852 228.895169,12.0288519 229.874367,12.8228333 C230.852291,13.617463 231.340934,14.8398704 231.340934,16.4913519 L231.340934,18.0157963 C231.340934,18.9050556 231.189945,19.6303333 230.888604,20.1909815 C230.587264,20.7522778 230.124104,21.1709815 229.499761,21.4457963 C230.831267,21.5728333 231.820021,22.0388519 232.465387,22.8432037 C233.110116,23.6482037 233.433118,24.8232963 233.433118,26.3684815 L233.433118,29.2903333 C233.433118,31.0688519 232.938104,32.382 231.949986,33.2284815 C230.961869,34.074963 229.437327,34.4988519 227.376997,34.4988519 L227.376997,34.4988519 Z" id="Fill-50" fill="#00AEEF"></path>
                <path d="M256.408278,34.4987222 L240.518766,34.4987222 C240.123137,34.4987222 239.836449,34.4086296 239.660614,34.2284444 C239.483505,34.0489074 239.39495,33.7578889 239.39495,33.3553889 L239.39495,12.7753889 C239.39495,12.373537 239.483505,12.0825185 239.660614,11.9023333 C239.836449,11.7221481 240.123137,11.6320556 240.518766,11.6320556 L245.357419,11.6320556 C245.752411,11.6320556 246.039099,11.7221481 246.216208,11.9023333 C246.392043,12.0825185 246.481235,12.373537 246.481235,12.7753889 L246.481235,28.4962222 L250.75798,28.4962222 L250.75798,23.3512222 C250.75798,22.9493704 250.846535,22.6577037 251.023644,22.4781667 C251.200116,22.2979815 251.486167,22.2078889 251.882433,22.2078889 L256.408278,22.2078889 C256.80327,22.2078889 257.089321,22.2979815 257.267067,22.4781667 C257.443539,22.6577037 257.532094,22.9493704 257.532094,23.3512222 L257.532094,33.3553889 C257.532094,33.7578889 257.443539,34.0489074 257.267067,34.2284444 C257.089321,34.4086296 256.80327,34.4987222 256.408278,34.4987222" id="Fill-52" fill="#00AEEF"></path>
                <path d="M264.212557,34.4987222 C263.816928,34.4987222 263.530877,34.4086296 263.353768,34.2284444 C263.176658,34.0489074 263.088104,33.7578889 263.088104,33.3553889 L263.088104,29.576037 C263.088104,29.1741852 263.176658,28.8825185 263.353768,28.7029815 C263.530877,28.5227963 263.816928,28.4327037 264.212557,28.4327037 L267.303051,28.4327037 L267.303051,17.7615926 L264.212557,17.7615926 C263.816928,17.7615926 263.530877,17.6721481 263.353768,17.491963 C263.176658,17.3117778 263.088104,17.0207593 263.088104,16.6182593 L263.088104,12.7753889 C263.088104,12.373537 263.176658,12.0825185 263.353768,11.9023333 C263.530877,11.7221481 263.816928,11.6320556 264.212557,11.6320556 L277.511048,11.6320556 C277.90604,11.6320556 278.192091,11.7221481 278.3692,11.9023333 C278.545673,12.0825185 278.634864,12.373537 278.634864,12.7753889 L278.634864,16.6182593 C278.634864,17.0207593 278.545673,17.3117778 278.3692,17.491963 C278.192091,17.6721481 277.90604,17.7615926 277.511048,17.7615926 L274.482988,17.7615926 L274.482988,28.4327037 L277.511048,28.4327037 C277.90604,28.4327037 278.192091,28.5227963 278.3692,28.7029815 C278.545673,28.8825185 278.634864,29.1741852 278.634864,29.576037 L278.634864,33.3553889 C278.634864,33.7578889 278.545673,34.0489074 278.3692,34.2284444 C278.192091,34.4086296 277.90604,34.4987222 277.511048,34.4987222 L264.212557,34.4987222 Z" id="Fill-54" fill="#00AEEF"></path>
                <path d="M295.397946,34.4987222 L285.533337,34.4987222 C285.137708,34.4987222 284.85102,34.4086296 284.674548,34.2284444 C284.498076,34.0489074 284.409521,33.7578889 284.409521,33.3553889 L284.409521,29.6395556 C284.409521,29.2377037 284.498076,28.9466852 284.674548,28.7658519 C284.85102,28.5863148 285.137708,28.4962222 285.533337,28.4962222 L293.930741,28.4962222 C294.200865,28.4962222 294.403458,28.4067778 294.539157,28.2259444 C294.674218,28.0464074 294.742386,27.8292778 294.742386,27.5752037 C294.742386,27.2154815 294.674218,26.951037 294.539157,26.7812222 C294.403458,26.6120556 294.200865,26.5167778 293.930741,26.4953889 L289.248174,25.8284444 C287.791163,25.6171481 286.62084,25.1297407 285.73593,24.3675185 C284.85102,23.6052963 284.409521,22.3349259 284.409521,20.5564074 L284.409521,17.2216852 C284.409521,15.4224259 284.981623,14.0412222 286.126462,13.0774259 C287.270665,12.1136296 288.852545,11.6320556 290.871464,11.6320556 L299.612256,11.6320556 C300.007248,11.6320556 300.293936,11.7221481 300.471046,11.9023333 C300.646881,12.0825185 300.736073,12.373537 300.736073,12.7753889 L300.736073,16.5547407 C300.736073,16.9572407 300.646881,17.2482593 300.471046,17.4284444 C300.293936,17.6079815 300.007248,17.6980741 299.612256,17.6980741 L292.338668,17.6980741 C292.067908,17.6980741 291.859581,17.7881667 291.714326,17.9683519 C291.568434,18.1478889 291.495806,18.376037 291.495806,18.6508519 C291.495806,18.9263148 291.568434,19.159 291.714326,19.3495556 C291.859581,19.5401111 292.067908,19.6464074 292.338668,19.6671481 L296.990019,20.3023333 C298.446393,20.5142778 299.62245,21.001037 300.517553,21.7632593 C301.412019,22.5254815 301.859889,23.7958519 301.859889,25.5743704 L301.859889,28.9090926 C301.859889,30.709 301.282054,32.0902037 300.127657,33.054 C298.971987,34.0171481 297.395841,34.4987222 295.397946,34.4987222" id="Fill-56" fill="#00AEEF"></path>
                <path d="M313.722202,34.4987222 L308.882912,34.4987222 C308.487919,34.4987222 308.201232,34.4086296 308.025397,34.2284444 C307.84765,34.0489074 307.759732,33.7578889 307.759732,33.3553889 L307.759732,12.7753889 C307.759732,12.373537 307.84765,12.0825185 308.025397,11.9023333 C308.201232,11.7221481 308.487919,11.6320556 308.882912,11.6320556 L313.722202,11.6320556 C314.117194,11.6320556 314.403244,11.7221481 314.580991,11.9023333 C314.756826,12.0825185 314.846018,12.373537 314.846018,12.7753889 L314.846018,19.6671481 L320.058639,19.6671481 L320.058639,12.7753889 C320.058639,12.373537 320.147194,12.0825185 320.324303,11.9023333 C320.501412,11.7221481 320.787463,11.6320556 321.183092,11.6320556 L326.021108,11.6320556 C326.416737,11.6320556 326.702788,11.7221481 326.879897,11.9023333 C327.05637,12.0825185 327.144924,12.373537 327.144924,12.7753889 L327.144924,33.3553889 C327.144924,33.7578889 327.05637,34.0489074 326.879897,34.2284444 C326.702788,34.4086296 326.416737,34.4987222 326.021108,34.4987222 L321.183092,34.4987222 C320.787463,34.4987222 320.501412,34.4086296 320.324303,34.2284444 C320.147194,34.0489074 320.058639,33.7578889 320.058639,33.3553889 L320.058639,26.3048333 L314.846018,26.3048333 L314.846018,33.3553889 C314.846018,33.7578889 314.756826,34.0489074 314.580991,34.2284444 C314.403244,34.4086296 314.117194,34.4987222 313.722202,34.4987222" id="Fill-58" fill="#00AEEF"></path>
                <path d="M334.574534,34.4987222 C334.178905,34.4987222 333.892854,34.4086296 333.715745,34.2284444 C333.539273,34.0489074 333.450718,33.7578889 333.450718,33.3553889 L333.450718,29.576037 C333.450718,29.1741852 333.539273,28.8825185 333.715745,28.7029815 C333.892854,28.5227963 334.178905,28.4327037 334.574534,28.4327037 L337.665666,28.4327037 L337.665666,17.7615926 L334.574534,17.7615926 C334.178905,17.7615926 333.892854,17.6721481 333.715745,17.491963 C333.539273,17.3117778 333.450718,17.0207593 333.450718,16.6182593 L333.450718,12.7753889 C333.450718,12.373537 333.539273,12.0825185 333.715745,11.9023333 C333.892854,11.7221481 334.178905,11.6320556 334.574534,11.6320556 L347.873662,11.6320556 C348.268017,11.6320556 348.554068,11.7221481 348.731177,11.9023333 C348.90765,12.0825185 348.997479,12.373537 348.997479,12.7753889 L348.997479,16.6182593 C348.997479,17.0207593 348.90765,17.3117778 348.731177,17.491963 C348.554068,17.6721481 348.268017,17.7615926 347.873662,17.7615926 L344.844965,17.7615926 L344.844965,28.4327037 L347.873662,28.4327037 C348.268017,28.4327037 348.554068,28.5227963 348.731177,28.7029815 C348.90765,28.8825185 348.997479,29.1741852 348.997479,29.576037 L348.997479,33.3553889 C348.997479,33.7578889 348.90765,34.0489074 348.731177,34.2284444 C348.554068,34.4086296 348.268017,34.4987222 347.873662,34.4987222 L334.574534,34.4987222 Z" id="Fill-60" fill="#00AEEF"></path>
                <path d="M361.140427,34.4987222 L356.456585,34.4987222 C356.06223,34.4987222 355.774906,34.4086296 355.599707,34.2284444 C355.421324,34.0489074 355.333406,33.7578889 355.333406,33.3553889 L355.333406,12.7753889 C355.333406,12.373537 355.421324,12.0825185 355.599707,11.9023333 C355.774906,11.7221481 356.06223,11.6320556 356.456585,11.6320556 L359.70444,11.6320556 C360.098795,11.6320556 360.437086,11.6955741 360.718677,11.8226111 C360.999631,11.9496481 361.274852,12.171963 361.546249,12.4895556 L367.60237,19.5401111 L367.60237,12.7753889 C367.60237,12.373537 367.690287,12.0825185 367.867397,11.9023333 C368.043869,11.7221481 368.32992,11.6320556 368.725549,11.6320556 L373.408116,11.6320556 C373.803745,11.6320556 374.089796,11.7221481 374.266906,11.9023333 C374.443378,12.0825185 374.531932,12.373537 374.531932,12.7753889 L374.531932,33.3553889 C374.531932,33.7578889 374.443378,34.0489074 374.266906,34.2284444 C374.089796,34.4086296 373.803745,34.4987222 373.408116,34.4987222 L368.725549,34.4987222 C368.32992,34.4987222 368.043869,34.4086296 367.867397,34.2284444 C367.690287,34.0489074 367.60237,33.7578889 367.60237,33.3553889 L367.60237,29.449 L362.264243,22.8748333 L362.264243,33.3553889 C362.264243,33.7578889 362.175688,34.0489074 361.999216,34.2284444 C361.820833,34.4086296 361.534782,34.4987222 361.140427,34.4987222" id="Fill-62" fill="#00AEEF"></path>
                <path d="M398.506932,34.4987222 L388.672904,34.4987222 C386.071053,34.4987222 384.141325,33.9698333 382.882447,32.9107593 C381.622932,31.8523333 380.993493,30.2222407 380.993493,28.0198333 L380.993493,18.1109444 C380.993493,15.9091852 381.622932,14.2790926 382.882447,13.2200185 C384.141325,12.1615926 386.071053,11.6320556 388.672904,11.6320556 L396.477183,11.6320556 C396.873449,11.6320556 397.1595,11.7221481 397.335972,11.9023333 C397.512444,12.0825185 397.600999,12.373537 397.600999,12.7753889 L397.600999,16.6182593 C397.600999,17.0207593 397.512444,17.3117778 397.335972,17.491963 C397.1595,17.6721481 396.873449,17.7615926 396.477183,17.7615926 L389.98466,17.7615926 C389.338656,17.7615926 388.860843,17.8938148 388.548672,18.1589074 C388.236501,18.4233519 388.079778,18.8206667 388.079778,19.3495556 L388.079778,26.9400185 C388.079778,27.4695556 388.198913,27.861037 388.439094,28.1151111 C388.678,28.3691852 389.036679,28.4962222 389.515766,28.4962222 L392.544463,28.4962222 L392.544463,23.5417778 C392.544463,23.1399259 392.632381,22.8482593 392.80949,22.6687222 C392.985962,22.488537 393.272013,22.3984444 393.667642,22.3984444 L398.506932,22.3984444 C398.901287,22.3984444 399.187338,22.488537 399.365721,22.6687222 C399.542194,22.8482593 399.630748,23.1399259 399.630748,23.5417778 L399.630748,33.3553889 C399.630748,33.7578889 399.542194,34.0489074 399.365721,34.2284444 C399.187338,34.4086296 398.901287,34.4987222 398.506932,34.4987222" id="Fill-64" fill="#00AEEF"></path>
            </g>
        </g>
    </g>
</svg>