
<svg width="241px" height="21px" viewBox="0 0 241 21" version="1.1" xmlns="http://www.w3.org/2000/svg" xmlns:xlink="http://www.w3.org/1999/xlink">
    <!-- Generator: Sketch 46.2 (44496) - http://www.bohemiancoding.com/sketch -->
    <desc>Created with Sketch.</desc>
    <defs></defs>
    <g id="Page-1" stroke="none" stroke-width="1" fill="none" fill-rule="evenodd">
        <g id="Mobile-Copy-4" transform="translate(-40.000000, -20.000000)">
            <g id="Page-1" transform="translate(40.000000, 20.000000)">
                <path d="M7.3912141,19.4180389 C7.3912141,19.7777611 7.31177195,20.0383167 7.15403344,20.1985389 C6.995913,20.3595389 6.74039952,20.4400389 6.38749303,20.4400389 L2.14955959,20.4400389 C1.79627116,20.4400389 1.54075769,20.3595389 1.38301918,20.1985389 C1.2245168,20.0383167 1.14583851,19.7777611 1.14583851,19.4180389 L1.14583851,16.3804278 C1.14583851,15.5100944 1.2199336,14.85715 1.36888764,14.4215944 C1.51745975,13.9864278 1.79627116,13.4754278 2.20532187,12.8885944 L4.46369429,9.79420556 L2.20532187,6.69981667 C1.77755642,6.11337222 1.49454374,5.60237222 1.35513803,5.16681667 C1.21573233,4.73165 1.14583851,4.07870556 1.14583851,3.20798333 L1.14583851,1.02203889 C1.14583851,0.662705556 1.2245168,0.402538889 1.38301918,0.24115 C1.54075769,0.0805388889 1.79627116,3.88888889e-05 2.14955959,3.88888889e-05 L6.44325531,3.88888889e-05 C6.79616181,3.88888889e-05 7.05167528,0.0805388889 7.20979572,0.24115 C7.36753423,0.402538889 7.44697639,0.662705556 7.44697639,1.02203889 L7.44697639,2.98087222 C7.44697639,3.17026111 7.45614279,3.36898333 7.47485753,3.57703889 C7.49319033,3.78548333 7.56766735,3.98420556 7.69790666,4.17320556 L8.92467686,5.96170556 C9.01748669,6.11337222 9.11526165,6.23120556 9.21761981,6.31676111 C9.3192141,6.40153889 9.44487021,6.44431667 9.59382425,6.44431667 L9.92839794,6.44431667 C10.07697,6.44431667 10.197661,6.40153889 10.2908528,6.31676111 C10.3836626,6.23120556 10.4860208,6.11337222 10.5975453,5.96170556 L11.8521967,4.17320556 C11.982054,3.98420556 12.0565311,3.78548333 12.0752458,3.57703889 C12.0935786,3.36898333 12.1031269,3.17026111 12.1031269,2.98087222 L12.1031269,1.02203889 C12.1031269,0.662705556 12.1818052,0.402538889 12.3403076,0.24115 C12.4980461,0.0805388889 12.7535596,3.88888889e-05 13.106848,3.88888889e-05 L17.3447815,3.88888889e-05 C17.697688,3.88888889e-05 17.9532014,0.0805388889 18.1113219,0.24115 C18.2690604,0.402538889 18.3485025,0.662705556 18.3485025,1.02203889 L18.3485025,3.20798333 C18.3485025,4.07870556 18.2740255,4.73165 18.1254534,5.16681667 C17.9764994,5.60237222 17.697688,6.11337222 17.2890192,6.69981667 L15.0306468,9.82259444 L17.2890192,12.8885944 C17.7164027,13.4754278 17.9997973,13.9864278 18.1395849,14.4215944 C18.2786087,14.85715 18.3485025,15.5100944 18.3485025,16.3804278 L18.3485025,19.4180389 C18.3485025,19.7777611 18.2690604,20.0383167 18.1113219,20.1985389 C17.9532014,20.3595389 17.697688,20.4400389 17.3447815,20.4400389 L13.106848,20.4400389 C12.7535596,20.4400389 12.4980461,20.3595389 12.3403076,20.1985389 C12.1818052,20.0383167 12.1031269,19.7777611 12.1031269,19.4180389 L12.1031269,16.6075389 C12.1031269,16.4185389 12.0935786,16.2198167 12.0752458,16.0113722 C12.0565311,15.8033167 11.982054,15.6045944 11.8521967,15.4152056 L10.6254265,13.6267056 C10.5139019,13.4563722 10.4115437,13.3334833 10.3187339,13.25765 C10.2255422,13.1822056 10.1048512,13.1440944 9.95627908,13.1440944 L9.56594311,13.1440944 C9.41698906,13.1440944 9.2962981,13.1822056 9.20348827,13.25765 C9.11029651,13.3334833 9.00832029,13.4563722 8.89679572,13.6267056 L7.64214437,15.4152056 C7.51190507,15.6045944 7.43742805,15.8033167 7.41909525,16.0113722 C7.40038051,16.2198167 7.3912141,16.4185389 7.3912141,16.6075389 L7.3912141,19.4180389 Z" id="Fill-1" fill="#FFFFFF"></path>
                <path d="M27.7537662,10.28335 L27.7537662,13.1607389 L29.4380927,13.1607389 C29.7997837,13.1607389 30.0369643,13.0654611 30.1492528,12.8749056 C30.2615412,12.68435 30.3176854,12.4685167 30.3176854,12.2270167 L30.3176854,11.2170722 C30.3176854,10.9759611 30.2615412,10.7597389 30.1492528,10.5691833 C30.0369643,10.3786278 29.7997837,10.28335 29.4380927,10.28335 L27.7537662,10.28335 Z M27.1174651,20.4399611 L24.2166807,20.4399611 C23.9795,20.4399611 23.8080119,20.3862944 23.7022163,20.2781833 C23.5960388,20.1700722 23.5429501,19.9954611 23.5429501,19.7539611 L23.5429501,7.40596111 C23.5429501,7.16485 23.5960388,6.99023889 23.7022163,6.88212778 C23.8080119,6.77440556 23.9795,6.71996111 24.2166807,6.71996111 L29.9433906,6.71996111 C31.639939,6.71996111 32.8002528,7.06296111 33.424332,7.74896111 C34.0480293,8.43496111 34.3600689,9.33057222 34.3600689,10.4357944 L34.3600689,12.8749056 C34.3600689,13.9801278 34.0480293,14.8757389 33.424332,15.5617389 C32.8002528,16.2477389 31.639939,16.5907389 29.9433906,16.5907389 L27.7911957,16.5907389 L27.7911957,19.7539611 C27.7911957,19.9954611 27.738107,20.1700722 27.6323114,20.2781833 C27.5261339,20.3862944 27.3546458,20.4399611 27.1174651,20.4399611 L27.1174651,20.4399611 Z" id="Fill-3" fill="#FFFFFF"></path>
                <path d="M42.0329971,10.1500389 L42.0329971,12.58915 L43.4366025,12.58915 C43.760864,12.58915 43.97933,12.5032056 44.0916184,12.3317056 C44.2039068,12.1602056 44.260051,11.9478722 44.260051,11.6935389 L44.260051,11.04565 C44.260051,10.7917056 44.2039068,10.5789833 44.0916184,10.4074833 C43.97933,10.2359833 43.760864,10.1500389 43.4366025,10.1500389 L42.0329971,10.1500389 Z M41.3592666,20.4400389 L38.4771968,20.4400389 C38.2400162,20.4400389 38.0685281,20.3859833 37.9623506,20.2778722 C37.8561731,20.17015 37.8034662,19.9955389 37.8034662,19.7540389 L37.8034662,7.40603889 C37.8034662,7.16492778 37.8561731,6.99031667 37.9623506,6.88220556 C38.0685281,6.77409444 38.2400162,6.72003889 38.4771968,6.72003889 L44.7092048,6.72003889 C46.1063173,6.72003889 47.0699353,7.01520556 47.6008228,7.60592778 C48.1305645,8.19703889 48.3960082,8.96237222 48.3960082,9.90231667 L48.3960082,10.7788722 C48.3960082,11.3124278 48.3180938,11.76665 48.161883,12.1415389 C48.0060542,12.5160389 47.7344995,12.7863167 47.3479829,12.9512056 C48.0217135,13.0274278 48.5671144,13.3070389 48.9857135,13.78965 C49.4031667,14.27265 49.6124662,14.9139278 49.6124662,15.7142611 L49.6124662,19.7540389 C49.6124662,19.9955389 49.5593775,20.17015 49.4532,20.2778722 C49.3470225,20.3859833 49.1755344,20.4400389 48.9387357,20.4400389 L46.0379512,20.4400389 C45.8007705,20.4400389 45.6292824,20.3859833 45.5231049,20.2778722 C45.4169274,20.17015 45.3642206,19.9955389 45.3642206,19.7540389 L45.3642206,16.8385389 C45.3642206,16.5593167 45.3111319,16.3524278 45.2053363,16.2190389 C45.0987769,16.0860389 44.9150669,16.01915 44.6530605,16.01915 L42.0329971,16.01915 L42.0329971,19.7540389 C42.0329971,19.9955389 41.9795265,20.17015 41.8737309,20.2778722 C41.7679353,20.3859833 41.5960653,20.4400389 41.3592666,20.4400389 L41.3592666,20.4400389 Z" id="Fill-5" fill="#FFFFFF"></path>
                <path d="M62.5628743,20.4400389 L53.8792357,20.4400389 C53.642055,20.4400389 53.4705669,20.3859833 53.3647713,20.2778722 C53.2585938,20.17015 53.2055051,19.9955389 53.2055051,19.7540389 L53.2055051,7.40603889 C53.2055051,7.16492778 53.2585938,6.99031667 53.3647713,6.88220556 C53.4705669,6.77409444 53.642055,6.72003889 53.8792357,6.72003889 L62.5628743,6.72003889 C62.7996731,6.72003889 62.9715431,6.77409444 63.0777206,6.88220556 C63.1835162,6.99031667 63.2366049,7.16492778 63.2366049,7.40603889 L63.2366049,9.63553889 C63.2366049,9.87703889 63.1835162,10.05165 63.0777206,10.1593722 C62.9715431,10.2674833 62.7996731,10.3215389 62.5628743,10.3215389 L57.3976065,10.3215389 L57.3976065,11.7888167 L61.0469805,11.7888167 C61.2837792,11.7888167 61.4556493,11.8432611 61.5614448,11.9505944 C61.6676223,12.0587056 61.7207111,12.2337056 61.7207111,12.4748167 L61.7207111,14.5137611 C61.7207111,14.7552611 61.6676223,14.9302611 61.5614448,15.0375944 C61.4556493,15.1457056 61.2837792,15.1997611 61.0469805,15.1997611 L57.3976065,15.1997611 L57.3976065,16.8385389 L62.5628743,16.8385389 C62.7996731,16.8385389 62.9715431,16.8925944 63.0777206,17.0003167 C63.1835162,17.1088167 63.2366049,17.2834278 63.2366049,17.5245389 L63.2366049,19.7540389 C63.2366049,19.9955389 63.1835162,20.17015 63.0777206,20.2778722 C62.9715431,20.3859833 62.7996731,20.4400389 62.5628743,20.4400389" id="Fill-7" fill="#FFFFFF"></path>
                <path d="M73.1926548,20.4400389 L67.2787975,20.4400389 C67.0416168,20.4400389 66.8701287,20.3859833 66.7639512,20.2778722 C66.6581556,20.17015 66.6050669,19.9955389 66.6050669,19.7540389 L66.6050669,17.5245389 C66.6050669,17.2834278 66.6581556,17.1088167 66.7639512,17.0003167 C66.8701287,16.8925944 67.0416168,16.8385389 67.2787975,16.8385389 L72.3130621,16.8385389 C72.4750019,16.8385389 72.5964567,16.7848722 72.6778086,16.6763722 C72.7591604,16.56865 72.7996453,16.4383722 72.7996453,16.2859278 C72.7996453,16.0700944 72.7591604,15.9114278 72.6778086,15.8095389 C72.5964567,15.7080389 72.4750019,15.6508722 72.3130621,15.6380389 L69.5058513,15.2378722 C68.6323696,15.1110944 67.9307578,14.81865 67.4002523,14.3613167 C66.8701287,13.9039833 66.6050669,13.1417611 66.6050669,12.07465 L66.6050669,10.0738167 C66.6050669,8.99426111 66.9480431,8.16553889 67.6343775,7.58726111 C68.32033,7.00898333 69.2686707,6.72003889 70.4790177,6.72003889 L75.7191445,6.72003889 C75.9559433,6.72003889 76.1278133,6.77409444 76.2336089,6.88220556 C76.3397864,6.99031667 76.3928751,7.16492778 76.3928751,7.40603889 L76.3928751,9.67365 C76.3928751,9.91515 76.3397864,10.0897611 76.2336089,10.1978722 C76.1278133,10.3055944 75.9559433,10.35965 75.7191445,10.35965 L71.3586105,10.35965 C71.1962887,10.35965 71.0713965,10.4137056 70.9843157,10.5218167 C70.8968529,10.6295389 70.8533125,10.7664278 70.8533125,10.9313167 C70.8533125,11.0965944 70.8968529,11.2362056 70.9843157,11.3505389 C71.0713965,11.4648722 71.1962887,11.52865 71.3586105,11.5410944 L74.1471065,11.9222056 C75.0202063,12.0493722 75.7252555,12.3414278 76.2618719,12.7987611 C76.7981065,13.2560944 77.0666057,14.0183167 77.0666057,15.0854278 L77.0666057,17.0862611 C77.0666057,18.1662056 76.7201921,18.9949278 76.0277468,19.5732056 C75.3353014,20.1510944 74.3903981,20.4400389 73.1926548,20.4400389" id="Fill-9" fill="#FFFFFF"></path>
                <path d="M86.760993,20.4400389 L80.8471357,20.4400389 C80.609955,20.4400389 80.4384669,20.3859833 80.3322894,20.2778722 C80.2264938,20.17015 80.1734051,19.9955389 80.1734051,19.7540389 L80.1734051,17.5245389 C80.1734051,17.2834278 80.2264938,17.1088167 80.3322894,17.0003167 C80.4384669,16.8925944 80.609955,16.8385389 80.8471357,16.8385389 L85.8814003,16.8385389 C86.0433401,16.8385389 86.1647949,16.7848722 86.2461468,16.6763722 C86.3274986,16.56865 86.3679835,16.4383722 86.3679835,16.2859278 C86.3679835,16.0700944 86.3274986,15.9114278 86.2461468,15.8095389 C86.1647949,15.7080389 86.0433401,15.6508722 85.8814003,15.6380389 L83.0741895,15.2378722 C82.2007078,15.1110944 81.499096,14.81865 80.9685905,14.3613167 C80.4384669,13.9039833 80.1734051,13.1417611 80.1734051,12.07465 L80.1734051,10.0738167 C80.1734051,8.99426111 80.5163813,8.16553889 81.2027157,7.58726111 C81.8886681,7.00898333 82.8370089,6.72003889 84.0473559,6.72003889 L89.2874827,6.72003889 C89.5242815,6.72003889 89.6961515,6.77409444 89.8019471,6.88220556 C89.9081246,6.99031667 89.9612133,7.16492778 89.9612133,7.40603889 L89.9612133,9.67365 C89.9612133,9.91515 89.9081246,10.0897611 89.8019471,10.1978722 C89.6961515,10.3055944 89.5242815,10.35965 89.2874827,10.35965 L84.9269487,10.35965 C84.7646269,10.35965 84.6397347,10.4137056 84.5526539,10.5218167 C84.4651911,10.6295389 84.4216507,10.7664278 84.4216507,10.9313167 C84.4216507,11.0965944 84.4651911,11.2362056 84.5526539,11.3505389 C84.6397347,11.4648722 84.7646269,11.52865 84.9269487,11.5410944 L87.7154447,11.9222056 C88.5885445,12.0493722 89.2935937,12.3414278 89.8302101,12.7987611 C90.3664447,13.2560944 90.6349439,14.0183167 90.6349439,15.0854278 L90.6349439,17.0862611 C90.6349439,18.1662056 90.2885303,18.9949278 89.5960849,19.5732056 C88.9036396,20.1510944 87.9587363,20.4400389 86.760993,20.4400389" id="Fill-11" fill="#FFFFFF"></path>
                <path d="M104.090306,10.28335 L104.090306,13.1607389 L105.774633,13.1607389 C106.136324,13.1607389 106.373886,13.0654611 106.485411,12.8749056 C106.598081,12.68435 106.654225,12.4685167 106.654225,12.2270167 L106.654225,11.2170722 C106.654225,10.9759611 106.598081,10.7597389 106.485411,10.5691833 C106.373886,10.3786278 106.136324,10.28335 105.774633,10.28335 L104.090306,10.28335 Z M103.454005,20.4399611 L100.552839,20.4399611 C100.316422,20.4399611 100.14417,20.3862944 100.038756,20.2781833 C99.9325788,20.1700722 99.87949,19.9954611 99.87949,19.7539611 L99.87949,7.40596111 C99.87949,7.16485 99.9325788,6.99023889 100.038756,6.88212778 C100.14417,6.77440556 100.316422,6.71996111 100.552839,6.71996111 L106.279549,6.71996111 C107.976861,6.71996111 109.136793,7.06296111 109.761254,7.74896111 C110.384569,8.43496111 110.696609,9.33057222 110.696609,10.4357944 L110.696609,12.8749056 C110.696609,13.9801278 110.384569,14.8757389 109.761254,15.5617389 C109.136793,16.2477389 107.976861,16.5907389 106.279549,16.5907389 L104.127736,16.5907389 L104.127736,19.7539611 C104.127736,19.9954611 104.074647,20.1700722 103.968851,20.2781833 C103.862674,20.3862944 103.691186,20.4399611 103.454005,20.4399611 L103.454005,20.4399611 Z" id="Fill-13" fill="#FFFFFF"></path>
                <path d="M125.612446,16.8384222 C125.612446,17.4229222 125.528039,17.9533667 125.359988,18.4297556 C125.191174,18.9061444 124.891738,19.3129222 124.461299,19.6493111 C124.03086,19.9860889 123.441537,20.2493667 122.692947,20.4399222 C121.944358,20.6304778 120.989906,20.7257556 119.829592,20.7257556 C118.669278,20.7257556 117.714827,20.6304778 116.966237,20.4399222 C116.217648,20.2493667 115.627942,19.9860889 115.197503,19.6493111 C114.767065,19.3129222 114.467629,18.9061444 114.299578,18.4297556 C114.130763,17.9533667 114.046738,17.4229222 114.046738,16.8384222 L114.046738,7.40592222 C114.046738,7.16481111 114.099445,6.9902 114.206004,6.88208889 C114.3118,6.77436667 114.483288,6.71992222 114.720469,6.71992222 L117.658683,6.71992222 C117.895481,6.71992222 118.066969,6.77436667 118.173147,6.88208889 C118.279324,6.9902 118.332413,7.16481111 118.332413,7.40592222 L118.332413,16.0952556 C118.332413,16.3495889 118.425987,16.5623111 118.613134,16.7338111 C118.800282,16.9053111 119.218117,16.9908667 119.867022,16.9908667 C120.528148,16.9908667 120.952477,16.9053111 121.139624,16.7338111 C121.326771,16.5623111 121.420345,16.3495889 121.420345,16.0952556 L121.420345,7.40592222 C121.420345,7.16481111 121.473434,6.9902 121.579229,6.88208889 C121.685407,6.77436667 121.856895,6.71992222 122.094076,6.71992222 L124.938716,6.71992222 C125.175515,6.71992222 125.347385,6.77436667 125.453562,6.88208889 C125.558976,6.9902 125.612446,7.16481111 125.612446,7.40592222 L125.612446,16.8384222 Z" id="Fill-15" fill="#FFFFFF"></path>
                <path d="M133.809502,14.9520778 L133.809502,17.2006333 L136.242418,17.2006333 C136.479217,17.2006333 136.656816,17.1372444 136.775979,17.0100778 C136.893996,16.8833 136.953196,16.6927444 136.953196,16.4384111 L136.953196,15.6952444 C136.953196,15.4413 136.893996,15.2538556 136.775979,15.1329111 C136.656816,15.0123556 136.479217,14.9520778 136.242418,14.9520778 L133.809502,14.9520778 Z M133.809502,9.95952222 L133.809502,12.0175222 L135.400255,12.0175222 C135.637053,12.0175222 135.814652,11.9541333 135.933816,11.8269667 C136.051833,11.7001889 136.111033,11.5092444 136.111033,11.2553 L136.111033,10.7217444 C136.111033,10.4678 136.051833,10.2772444 135.933816,10.1500778 C135.814652,10.0233 135.637053,9.95952222 135.400255,9.95952222 L133.809502,9.95952222 Z M137.458876,20.4400778 L130.272034,20.4400778 C130.035236,20.4400778 129.863366,20.3860222 129.757952,20.2779111 C129.651393,20.1701889 129.598686,19.9955778 129.598686,19.7540778 L129.598686,7.40607778 C129.598686,7.16496667 129.651393,6.98996667 129.757952,6.88224444 C129.863366,6.77413333 130.035236,6.72007778 130.272034,6.72007778 L136.242418,6.72007778 C137.464987,6.72007778 138.369023,6.95807778 138.956055,7.43446667 C139.542323,7.91124444 139.835266,8.64468889 139.835266,9.63557778 L139.835266,10.5502444 C139.835266,11.0838 139.744748,11.5189667 139.564093,11.8553556 C139.383439,12.1921333 139.105773,12.4433556 138.731478,12.6082444 C139.529719,12.6844667 140.12248,12.9640778 140.509378,13.4466889 C140.895895,13.9296889 141.089535,14.6347444 141.089535,15.5618556 L141.089535,17.3149667 C141.089535,18.3820778 140.792773,19.1699667 140.200394,19.6778556 C139.608015,20.1857444 138.694049,20.4400778 137.458876,20.4400778 L137.458876,20.4400778 Z" id="Fill-17" fill="#FFFFFF"></path>
                <path d="M154.863201,20.4400389 L145.337399,20.4400389 C145.100218,20.4400389 144.928348,20.3859833 144.822935,20.2778722 C144.716757,20.17015 144.663668,19.9955389 144.663668,19.7540389 L144.663668,7.40603889 C144.663668,7.16492778 144.716757,6.99031667 144.822935,6.88220556 C144.928348,6.77409444 145.100218,6.72003889 145.337399,6.72003889 L148.238183,6.72003889 C148.474982,6.72003889 148.646852,6.77409444 148.75303,6.88220556 C148.858443,6.99031667 148.911914,7.16492778 148.911914,7.40603889 L148.911914,16.8385389 L151.475833,16.8385389 L151.475833,13.7515389 C151.475833,13.5104278 151.528922,13.3354278 151.635099,13.2277056 C151.740895,13.1195944 151.912383,13.0655389 152.149946,13.0655389 L154.863201,13.0655389 C155.1,13.0655389 155.271488,13.1195944 155.378047,13.2277056 C155.483843,13.3354278 155.536931,13.5104278 155.536931,13.7515389 L155.536931,19.7540389 C155.536931,19.9955389 155.483843,20.17015 155.378047,20.2778722 C155.271488,20.3859833 155.1,20.4400389 154.863201,20.4400389" id="Fill-19" fill="#FFFFFF"></path>
                <path d="M159.541885,20.4400389 C159.304705,20.4400389 159.133217,20.3859833 159.027039,20.2778722 C158.920862,20.17015 158.867773,19.9955389 158.867773,19.7540389 L158.867773,17.4864278 C158.867773,17.2453167 158.920862,17.0703167 159.027039,16.9625944 C159.133217,16.8544833 159.304705,16.8004278 159.541885,16.8004278 L161.394645,16.8004278 L161.394645,10.3977611 L159.541885,10.3977611 C159.304705,10.3977611 159.133217,10.3440944 159.027039,10.2359833 C158.920862,10.1278722 158.867773,9.95326111 158.867773,9.71176111 L158.867773,7.40603889 C158.867773,7.16492778 158.920862,6.99031667 159.027039,6.88220556 C159.133217,6.77409444 159.304705,6.72003889 159.541885,6.72003889 L167.514364,6.72003889 C167.751163,6.72003889 167.922651,6.77409444 168.028828,6.88220556 C168.134624,6.99031667 168.188095,7.16492778 168.188095,7.40603889 L168.188095,9.71176111 C168.188095,9.95326111 168.134624,10.1278722 168.028828,10.2359833 C167.922651,10.3440944 167.751163,10.3977611 167.514364,10.3977611 L165.699034,10.3977611 L165.699034,16.8004278 L167.514364,16.8004278 C167.751163,16.8004278 167.922651,16.8544833 168.028828,16.9625944 C168.134624,17.0703167 168.188095,17.2453167 168.188095,17.4864278 L168.188095,19.7540389 C168.188095,19.9955389 168.134624,20.17015 168.028828,20.2778722 C167.922651,20.3859833 167.751163,20.4400389 167.514364,20.4400389 L159.541885,20.4400389 Z" id="Fill-21" fill="#FFFFFF"></path>
                <path d="M178.237604,20.4400389 L172.323746,20.4400389 C172.086566,20.4400389 171.914696,20.3859833 171.8089,20.2778722 C171.703104,20.17015 171.650016,19.9955389 171.650016,19.7540389 L171.650016,17.5245389 C171.650016,17.2834278 171.703104,17.1088167 171.8089,17.0003167 C171.914696,16.8925944 172.086566,16.8385389 172.323746,16.8385389 L177.358011,16.8385389 C177.519951,16.8385389 177.641406,16.7848722 177.722757,16.6763722 C177.803727,16.56865 177.844594,16.4383722 177.844594,16.2859278 C177.844594,16.0700944 177.803727,15.9114278 177.722757,15.8095389 C177.641406,15.7080389 177.519951,15.6508722 177.358011,15.6380389 L174.5508,15.2378722 C173.677318,15.1110944 172.975707,14.81865 172.445201,14.3613167 C171.914696,13.9039833 171.650016,13.1417611 171.650016,12.07465 L171.650016,10.0738167 C171.650016,8.99426111 171.992992,8.16553889 172.679326,7.58726111 C173.365279,7.00898333 174.313619,6.72003889 175.523967,6.72003889 L180.764093,6.72003889 C181.000892,6.72003889 181.172762,6.77409444 181.27894,6.88220556 C181.384353,6.99031667 181.437824,7.16492778 181.437824,7.40603889 L181.437824,9.67365 C181.437824,9.91515 181.384353,10.0897611 181.27894,10.1978722 C181.172762,10.3055944 181.000892,10.35965 180.764093,10.35965 L176.403559,10.35965 C176.241238,10.35965 176.116345,10.4137056 176.029265,10.5218167 C175.941802,10.6295389 175.898261,10.7664278 175.898261,10.9313167 C175.898261,11.0965944 175.941802,11.2362056 176.029265,11.3505389 C176.116345,11.4648722 176.241238,11.52865 176.403559,11.5410944 L179.192055,11.9222056 C180.065155,12.0493722 180.770204,12.3414278 181.306821,12.7987611 C181.843055,13.2560944 182.111555,14.0183167 182.111555,15.0854278 L182.111555,17.0862611 C182.111555,18.1662056 181.765141,18.9949278 181.073077,19.5732056 C180.38025,20.1510944 179.435347,20.4400389 178.237604,20.4400389" id="Fill-23" fill="#FFFFFF"></path>
                <path d="M189.223041,20.4400389 L186.321874,20.4400389 C186.085075,20.4400389 185.913205,20.3859833 185.807792,20.2778722 C185.701232,20.17015 185.648526,19.9955389 185.648526,19.7540389 L185.648526,7.40603889 C185.648526,7.16492778 185.701232,6.99031667 185.807792,6.88220556 C185.913205,6.77409444 186.085075,6.72003889 186.321874,6.72003889 L189.223041,6.72003889 C189.459839,6.72003889 189.631327,6.77409444 189.737887,6.88220556 C189.8433,6.99031667 189.896771,7.16492778 189.896771,7.40603889 L189.896771,11.5410944 L193.021751,11.5410944 L193.021751,7.40603889 C193.021751,7.16492778 193.074839,6.99031667 193.181017,6.88220556 C193.287194,6.77409444 193.458682,6.72003889 193.695863,6.72003889 L196.596266,6.72003889 C196.833446,6.72003889 197.004934,6.77409444 197.111112,6.88220556 C197.216907,6.99031667 197.269996,7.16492778 197.269996,7.40603889 L197.269996,19.7540389 C197.269996,19.9955389 197.216907,20.17015 197.111112,20.2778722 C197.004934,20.3859833 196.833446,20.4400389 196.596266,20.4400389 L193.695863,20.4400389 C193.458682,20.4400389 193.287194,20.3859833 193.181017,20.2778722 C193.074839,20.17015 193.021751,19.9955389 193.021751,19.7540389 L193.021751,15.5237056 L189.896771,15.5237056 L189.896771,19.7540389 C189.896771,19.9955389 189.8433,20.17015 189.737887,20.2778722 C189.631327,20.3859833 189.459839,20.4400389 189.223041,20.4400389" id="Fill-25" fill="#FFFFFF"></path>
                <path d="M201.724066,20.4400389 C201.486885,20.4400389 201.315397,20.3859833 201.209219,20.2778722 C201.103424,20.17015 201.050335,19.9955389 201.050335,19.7540389 L201.050335,17.4864278 C201.050335,17.2453167 201.103424,17.0703167 201.209219,16.9625944 C201.315397,16.8544833 201.486885,16.8004278 201.724066,16.8004278 L203.577207,16.8004278 L203.577207,10.3977611 L201.724066,10.3977611 C201.486885,10.3977611 201.315397,10.3440944 201.209219,10.2359833 C201.103424,10.1278722 201.050335,9.95326111 201.050335,9.71176111 L201.050335,7.40603889 C201.050335,7.16492778 201.103424,6.99031667 201.209219,6.88220556 C201.315397,6.77409444 201.486885,6.72003889 201.724066,6.72003889 L209.696926,6.72003889 C209.933343,6.72003889 210.104831,6.77409444 210.211009,6.88220556 C210.316804,6.99031667 210.370657,7.16492778 210.370657,7.40603889 L210.370657,9.71176111 C210.370657,9.95326111 210.316804,10.1278722 210.211009,10.2359833 C210.104831,10.3440944 209.933343,10.3977611 209.696926,10.3977611 L207.881215,10.3977611 L207.881215,16.8004278 L209.696926,16.8004278 C209.933343,16.8004278 210.104831,16.8544833 210.211009,16.9625944 C210.316804,17.0703167 210.370657,17.2453167 210.370657,17.4864278 L210.370657,19.7540389 C210.370657,19.9955389 210.316804,20.17015 210.211009,20.2778722 C210.104831,20.3859833 209.933343,20.4400389 209.696926,20.4400389 L201.724066,20.4400389 Z" id="Fill-27" fill="#FFFFFF"></path>
                <path d="M217.650385,20.4400389 L214.84241,20.4400389 C214.605993,20.4400389 214.433741,20.3859833 214.32871,20.2778722 C214.221768,20.17015 214.169061,19.9955389 214.169061,19.7540389 L214.169061,7.40603889 C214.169061,7.16492778 214.221768,6.99031667 214.32871,6.88220556 C214.433741,6.77409444 214.605993,6.72003889 214.84241,6.72003889 L216.789507,6.72003889 C217.025923,6.72003889 217.22873,6.75815 217.397545,6.83437222 C217.565977,6.91059444 217.730973,7.04398333 217.893676,7.23453889 L221.524335,11.4648722 L221.524335,7.40603889 C221.524335,7.16492778 221.577042,6.99031667 221.68322,6.88220556 C221.789015,6.77409444 221.960503,6.72003889 222.197684,6.72003889 L225.004895,6.72003889 C225.242076,6.72003889 225.413564,6.77409444 225.519741,6.88220556 C225.625537,6.99031667 225.678626,7.16492778 225.678626,7.40603889 L225.678626,19.7540389 C225.678626,19.9955389 225.625537,20.17015 225.519741,20.2778722 C225.413564,20.3859833 225.242076,20.4400389 225.004895,20.4400389 L222.197684,20.4400389 C221.960503,20.4400389 221.789015,20.3859833 221.68322,20.2778722 C221.577042,20.17015 221.524335,19.9955389 221.524335,19.7540389 L221.524335,17.4102056 L218.324115,13.4657056 L218.324115,19.7540389 C218.324115,19.9955389 218.271026,20.17015 218.165231,20.2778722 C218.05829,20.3859833 217.886801,20.4400389 217.650385,20.4400389" id="Fill-29" fill="#FFFFFF"></path>
                <g id="Group-33" transform="translate(229.541997, 6.596178)" fill="#FFFFFF">
                    <path d="M10.5097006,13.8438611 L4.61417607,13.8438611 C3.0543599,13.8438611 1.89748352,13.5265278 1.14278304,12.8910833 C0.387700634,12.2560278 0.0103503962,11.2779722 0.0103503962,9.95652778 L0.0103503962,4.01119444 C0.0103503962,2.69013889 0.387700634,1.71208333 1.14278304,1.07663889 C1.89748352,0.441583333 3.0543599,0.123861111 4.61417607,0.123861111 L9.2928607,0.123861111 C9.5304233,0.123861111 9.70191141,0.177916667 9.80770697,0.286027778 C9.91350254,0.394138889 9.96659128,0.56875 9.96659128,0.809861111 L9.96659128,3.11558333 C9.96659128,3.35708333 9.91350254,3.53169444 9.80770697,3.63980556 C9.70191141,3.74791667 9.5304233,3.80158333 9.2928607,3.80158333 L5.40057702,3.80158333 C5.01329651,3.80158333 4.72684643,3.88091667 4.53969905,4.03997222 C4.35255166,4.19863889 4.25859604,4.43702778 4.25859604,4.75436111 L4.25859604,9.30863889 C4.25859604,9.62636111 4.33001759,9.86125 4.4740065,10.0136944 C4.61723154,10.1661389 4.83226006,10.2423611 5.11947401,10.2423611 L6.93518558,10.2423611 L6.93518558,7.26969444 C6.93518558,7.02858333 6.98789239,6.85358333 7.09406989,6.74586111 C7.19986545,6.63775 7.37135357,6.58369444 7.60853423,6.58369444 L10.5097006,6.58369444 C10.7461174,6.58369444 10.9176055,6.63775 11.0245469,6.74586111 C11.1303425,6.85358333 11.1834312,7.02858333 11.1834312,7.26969444 L11.1834312,13.1578611 C11.1834312,13.3993611 11.1303425,13.5739722 11.0245469,13.6816944 C10.9176055,13.7898056 10.7461174,13.8438611 10.5097006,13.8438611" id="Fill-31"></path>
                </g>
                <path d="M6.24541379,19.6772333 C6.24541379,20.0369556 6.16597163,20.2975111 6.00823312,20.4577333 C5.85011268,20.6187333 5.59459921,20.6992333 5.24169271,20.6992333 L1.00375927,20.6992333 C0.65047084,20.6992333 0.394957369,20.6187333 0.237218859,20.4577333 C0.0787164818,20.2975111 3.81933439e-05,20.0369556 3.81933439e-05,19.6772333 L3.81933439e-05,16.6396222 C3.81933439e-05,15.7692889 0.0741332805,15.1163444 0.223087322,14.6807889 C0.371659429,14.2456222 0.65047084,13.7346222 1.05952155,13.1477889 L3.31789398,10.0534 L1.05952155,6.95901111 C0.631756101,6.37256667 0.348743423,5.86156667 0.209337718,5.42601111 C0.0699320127,4.99084444 3.81933439e-05,4.3379 3.81933439e-05,3.46717778 L3.81933439e-05,1.28123333 C3.81933439e-05,0.9219 0.0787164818,0.661733333 0.237218859,0.500344444 C0.394957369,0.339733333 0.65047084,0.259233333 1.00375927,0.259233333 L5.29745499,0.259233333 C5.65036149,0.259233333 5.90587496,0.339733333 6.0639954,0.500344444 C6.22173391,0.661733333 6.30117607,0.9219 6.30117607,1.28123333 L6.30117607,3.24006667 C6.30117607,3.42945556 6.31034247,3.62817778 6.32905721,3.83623333 C6.34739002,4.04467778 6.42186704,4.2434 6.55210634,4.4324 L7.77887655,6.2209 C7.87168637,6.37256667 7.96946133,6.4904 8.07181949,6.57595556 C8.17341379,6.66073333 8.29906989,6.70351111 8.44802393,6.70351111 L8.78259762,6.70351111 C8.93116973,6.70351111 9.0518607,6.66073333 9.14505246,6.57595556 C9.23786228,6.4904 9.34022044,6.37256667 9.45174501,6.2209 L10.7063964,4.4324 C10.8362537,4.2434 10.9107307,4.04467778 10.9294455,3.83623333 C10.9477783,3.62817778 10.9573266,3.42945556 10.9573266,3.24006667 L10.9573266,1.28123333 C10.9573266,0.9219 11.0360049,0.661733333 11.1945073,0.500344444 C11.3522458,0.339733333 11.6077593,0.259233333 11.9610477,0.259233333 L16.1989811,0.259233333 C16.5518876,0.259233333 16.8074011,0.339733333 16.9655216,0.500344444 C17.1232601,0.661733333 17.2027022,0.9219 17.2027022,1.28123333 L17.2027022,3.46717778 C17.2027022,4.3379 17.1282252,4.99084444 16.9796531,5.42601111 C16.830699,5.86156667 16.5518876,6.37256667 16.1432189,6.95901111 L13.8848464,10.0817889 L16.1432189,13.1477889 C16.5706024,13.7346222 16.853997,14.2456222 16.9937846,14.6807889 C17.1328084,15.1163444 17.2027022,15.7692889 17.2027022,16.6396222 L17.2027022,19.6772333 C17.2027022,20.0369556 17.1232601,20.2975111 16.9655216,20.4577333 C16.8074011,20.6187333 16.5518876,20.6992333 16.1989811,20.6992333 L11.9610477,20.6992333 C11.6077593,20.6992333 11.3522458,20.6187333 11.1945073,20.4577333 C11.0360049,20.2975111 10.9573266,20.0369556 10.9573266,19.6772333 L10.9573266,16.8667333 C10.9573266,16.6777333 10.9477783,16.4790111 10.9294455,16.2705667 C10.9107307,16.0625111 10.8362537,15.8637889 10.7063964,15.6744 L9.47962615,13.8859 C9.36810158,13.7155667 9.26574342,13.5926778 9.1729336,13.5168444 C9.07974184,13.4414 8.95905087,13.4032889 8.81047876,13.4032889 L8.42014279,13.4032889 C8.27118875,13.4032889 8.15049778,13.4414 8.05768796,13.5168444 C7.9644962,13.5926778 7.86251997,13.7155667 7.7509954,13.8859 L6.49634406,15.6744 C6.36610475,15.8637889 6.29162773,16.0625111 6.27329493,16.2705667 C6.25458019,16.4790111 6.24541379,16.6777333 6.24541379,16.8667333 L6.24541379,19.6772333 Z" id="Fill-34" fill="#00AEEF"></path>
                <path d="M26.6079659,10.5425444 L26.6079659,13.4199333 L28.2922924,13.4199333 C28.6539834,13.4199333 28.891164,13.3246556 29.0034525,13.1341 C29.1157409,12.9435444 29.1718851,12.7277111 29.1718851,12.4862111 L29.1718851,11.4762667 C29.1718851,11.2351556 29.1157409,11.0189333 29.0034525,10.8283778 C28.891164,10.6378222 28.6539834,10.5425444 28.2922924,10.5425444 L26.6079659,10.5425444 Z M25.9716648,20.6991556 L23.0708803,20.6991556 C22.8336997,20.6991556 22.6622116,20.6454889 22.556416,20.5373778 C22.4502385,20.4292667 22.3971498,20.2546556 22.3971498,20.0131556 L22.3971498,7.66515556 C22.3971498,7.42404444 22.4502385,7.24943333 22.556416,7.14132222 C22.6622116,7.0336 22.8336997,6.97915556 23.0708803,6.97915556 L28.7975903,6.97915556 C30.4941387,6.97915556 31.6544525,7.32215556 32.2785317,8.00815556 C32.902229,8.69415556 33.2142686,9.58976667 33.2142686,10.6949889 L33.2142686,13.1341 C33.2142686,14.2393222 32.902229,15.1349333 32.2785317,15.8209333 C31.6544525,16.5069333 30.4941387,16.8499333 28.7975903,16.8499333 L26.6453954,16.8499333 L26.6453954,20.0131556 C26.6453954,20.2546556 26.5923067,20.4292667 26.4865111,20.5373778 C26.3803336,20.6454889 26.2088455,20.6991556 25.9716648,20.6991556 L25.9716648,20.6991556 Z" id="Fill-36" fill="#00AEEF"></path>
                <path d="M40.8871968,10.4092333 L40.8871968,12.8483444 L42.2908022,12.8483444 C42.6150637,12.8483444 42.8335296,12.7624 42.9458181,12.5909 C43.0581065,12.4194 43.1142507,12.2070667 43.1142507,11.9527333 L43.1142507,11.3048444 C43.1142507,11.0509 43.0581065,10.8381778 42.9458181,10.6666778 C42.8335296,10.4951778 42.6150637,10.4092333 42.2908022,10.4092333 L40.8871968,10.4092333 Z M40.2134662,20.6992333 L37.3313965,20.6992333 C37.0942158,20.6992333 36.9227277,20.6451778 36.8165502,20.5370667 C36.7103727,20.4293444 36.6576659,20.2547333 36.6576659,20.0132333 L36.6576659,7.66523333 C36.6576659,7.42412222 36.7103727,7.24951111 36.8165502,7.1414 C36.9227277,7.03328889 37.0942158,6.97923333 37.3313965,6.97923333 L43.5634044,6.97923333 C44.960517,6.97923333 45.924135,7.2744 46.4550225,7.86512222 C46.9847642,8.45623333 47.2502079,9.22156667 47.2502079,10.1615111 L47.2502079,11.0380667 C47.2502079,11.5716222 47.1722935,12.0258444 47.0160827,12.4007333 C46.8602539,12.7752333 46.5886992,13.0455111 46.2021826,13.2104 C46.8759132,13.2866222 47.4213141,13.5662333 47.8399132,14.0488444 C48.2573664,14.5318444 48.4666659,15.1731222 48.4666659,15.9734556 L48.4666659,20.0132333 C48.4666659,20.2547333 48.4135772,20.4293444 48.3073997,20.5370667 C48.2012222,20.6451778 48.0297341,20.6992333 47.7929353,20.6992333 L44.8921509,20.6992333 C44.6549702,20.6992333 44.4834821,20.6451778 44.3773046,20.5370667 C44.2711271,20.4293444 44.2184203,20.2547333 44.2184203,20.0132333 L44.2184203,17.0977333 C44.2184203,16.8185111 44.1653315,16.6116222 44.059536,16.4782333 C43.9529765,16.3452333 43.7692666,16.2783444 43.5072602,16.2783444 L40.8871968,16.2783444 L40.8871968,20.0132333 C40.8871968,20.2547333 40.8337261,20.4293444 40.7279306,20.5370667 C40.622135,20.6451778 40.450265,20.6992333 40.2134662,20.6992333 L40.2134662,20.6992333 Z" id="Fill-38" fill="#00AEEF"></path>
                <path d="M61.417074,20.6992333 L52.7334353,20.6992333 C52.4962547,20.6992333 52.3247666,20.6451778 52.218971,20.5370667 C52.1127935,20.4293444 52.0597048,20.2547333 52.0597048,20.0132333 L52.0597048,7.66523333 C52.0597048,7.42412222 52.1127935,7.24951111 52.218971,7.1414 C52.3247666,7.03328889 52.4962547,6.97923333 52.7334353,6.97923333 L61.417074,6.97923333 C61.6538727,6.97923333 61.8257428,7.03328889 61.9319203,7.1414 C62.0377158,7.24951111 62.0908046,7.42412222 62.0908046,7.66523333 L62.0908046,9.89473333 C62.0908046,10.1362333 62.0377158,10.3108444 61.9319203,10.4185667 C61.8257428,10.5266778 61.6538727,10.5807333 61.417074,10.5807333 L56.2518062,10.5807333 L56.2518062,12.0480111 L59.9011802,12.0480111 C60.1379789,12.0480111 60.309849,12.1024556 60.4156445,12.2097889 C60.521822,12.3179 60.5749108,12.4929 60.5749108,12.7340111 L60.5749108,14.7729556 C60.5749108,15.0144556 60.521822,15.1894556 60.4156445,15.2967889 C60.309849,15.4049 60.1379789,15.4589556 59.9011802,15.4589556 L56.2518062,15.4589556 L56.2518062,17.0977333 L61.417074,17.0977333 C61.6538727,17.0977333 61.8257428,17.1517889 61.9319203,17.2595111 C62.0377158,17.3680111 62.0908046,17.5426222 62.0908046,17.7837333 L62.0908046,20.0132333 C62.0908046,20.2547333 62.0377158,20.4293444 61.9319203,20.5370667 C61.8257428,20.6451778 61.6538727,20.6992333 61.417074,20.6992333" id="Fill-40" fill="#00AEEF"></path>
                <path d="M72.0468545,20.6992333 L66.1329971,20.6992333 C65.8958165,20.6992333 65.7243284,20.6451778 65.6181509,20.5370667 C65.5123553,20.4293444 65.4592666,20.2547333 65.4592666,20.0132333 L65.4592666,17.7837333 C65.4592666,17.5426222 65.5123553,17.3680111 65.6181509,17.2595111 C65.7243284,17.1517889 65.8958165,17.0977333 66.1329971,17.0977333 L71.1672618,17.0977333 C71.3292016,17.0977333 71.4506564,17.0440667 71.5320082,16.9355667 C71.6133601,16.8278444 71.653845,16.6975667 71.653845,16.5451222 C71.653845,16.3292889 71.6133601,16.1706222 71.5320082,16.0687333 C71.4506564,15.9672333 71.3292016,15.9100667 71.1672618,15.8972333 L68.360051,15.4970667 C67.4865693,15.3702889 66.7849575,15.0778444 66.254452,14.6205111 C65.7243284,14.1631778 65.4592666,13.4009556 65.4592666,12.3338444 L65.4592666,10.3330111 C65.4592666,9.25345556 65.8022428,8.42473333 66.4885772,7.84645556 C67.1745296,7.26817778 68.1228704,6.97923333 69.3332174,6.97923333 L74.5733442,6.97923333 C74.8101429,6.97923333 74.982013,7.03328889 75.0878086,7.1414 C75.1939861,7.24951111 75.2470748,7.42412222 75.2470748,7.66523333 L75.2470748,9.93284444 C75.2470748,10.1743444 75.1939861,10.3489556 75.0878086,10.4570667 C74.982013,10.5647889 74.8101429,10.6188444 74.5733442,10.6188444 L70.2128101,10.6188444 C70.0504884,10.6188444 69.9255962,10.6729 69.8385154,10.7810111 C69.7510526,10.8887333 69.7075122,11.0256222 69.7075122,11.1905111 C69.7075122,11.3557889 69.7510526,11.4954 69.8385154,11.6097333 C69.9255962,11.7240667 70.0504884,11.7878444 70.2128101,11.8002889 L73.0013062,12.1814 C73.874406,12.3085667 74.5794552,12.6006222 75.1160716,13.0579556 C75.6523062,13.5152889 75.9208054,14.2775111 75.9208054,15.3446222 L75.9208054,17.3454556 C75.9208054,18.4254 75.5743918,19.2541222 74.8819464,19.8324 C74.1895011,20.4102889 73.2445978,20.6992333 72.0468545,20.6992333" id="Fill-42" fill="#00AEEF"></path>
                <path d="M85.6151927,20.6992333 L79.7013353,20.6992333 C79.4641547,20.6992333 79.2926666,20.6451778 79.1864891,20.5370667 C79.0806935,20.4293444 79.0276048,20.2547333 79.0276048,20.0132333 L79.0276048,17.7837333 C79.0276048,17.5426222 79.0806935,17.3680111 79.1864891,17.2595111 C79.2926666,17.1517889 79.4641547,17.0977333 79.7013353,17.0977333 L84.7356,17.0977333 C84.8975398,17.0977333 85.0189946,17.0440667 85.1003464,16.9355667 C85.1816983,16.8278444 85.2221832,16.6975667 85.2221832,16.5451222 C85.2221832,16.3292889 85.1816983,16.1706222 85.1003464,16.0687333 C85.0189946,15.9672333 84.8975398,15.9100667 84.7356,15.8972333 L81.9283892,15.4970667 C81.0549074,15.3702889 80.3532957,15.0778444 79.8227902,14.6205111 C79.2926666,14.1631778 79.0276048,13.4009556 79.0276048,12.3338444 L79.0276048,10.3330111 C79.0276048,9.25345556 79.370581,8.42473333 80.0569154,7.84645556 C80.7428678,7.26817778 81.6912086,6.97923333 82.9015556,6.97923333 L88.1416824,6.97923333 C88.3784811,6.97923333 88.5503512,7.03328889 88.6561468,7.1414 C88.7623242,7.24951111 88.815413,7.42412222 88.815413,7.66523333 L88.815413,9.93284444 C88.815413,10.1743444 88.7623242,10.3489556 88.6561468,10.4570667 C88.5503512,10.5647889 88.3784811,10.6188444 88.1416824,10.6188444 L83.7811483,10.6188444 C83.6188266,10.6188444 83.4939344,10.6729 83.4068536,10.7810111 C83.3193908,10.8887333 83.2758504,11.0256222 83.2758504,11.1905111 C83.2758504,11.3557889 83.3193908,11.4954 83.4068536,11.6097333 C83.4939344,11.7240667 83.6188266,11.7878444 83.7811483,11.8002889 L86.5696444,12.1814 C87.4427442,12.3085667 88.1477933,12.6006222 88.6844098,13.0579556 C89.2206444,13.5152889 89.4891436,14.2775111 89.4891436,15.3446222 L89.4891436,17.3454556 C89.4891436,18.4254 89.14273,19.2541222 88.4502846,19.8324 C87.7578393,20.4102889 86.812936,20.6992333 85.6151927,20.6992333" id="Fill-44" fill="#00AEEF"></path>
                <path d="M102.944506,10.5425444 L102.944506,13.4199333 L104.628832,13.4199333 C104.990523,13.4199333 105.228086,13.3246556 105.33961,13.1341 C105.452281,12.9435444 105.508425,12.7277111 105.508425,12.4862111 L105.508425,11.4762667 C105.508425,11.2351556 105.452281,11.0189333 105.33961,10.8283778 C105.228086,10.6378222 104.990523,10.5425444 104.628832,10.5425444 L102.944506,10.5425444 Z M102.308205,20.6991556 L99.4070384,20.6991556 C99.1706216,20.6991556 98.9983696,20.6454889 98.8929559,20.5373778 C98.7867784,20.4292667 98.7336897,20.2546556 98.7336897,20.0131556 L98.7336897,7.66515556 C98.7336897,7.42404444 98.7867784,7.24943333 98.8929559,7.14132222 C98.9983696,7.0336 99.1706216,6.97915556 99.4070384,6.97915556 L105.133748,6.97915556 C106.831061,6.97915556 107.990992,7.32215556 108.615454,8.00815556 C109.238769,8.69415556 109.550809,9.58976667 109.550809,10.6949889 L109.550809,13.1341 C109.550809,14.2393222 109.238769,15.1349333 108.615454,15.8209333 C107.990992,16.5069333 106.831061,16.8499333 105.133748,16.8499333 L102.981935,16.8499333 L102.981935,20.0131556 C102.981935,20.2546556 102.928847,20.4292667 102.823051,20.5373778 C102.716874,20.6454889 102.545385,20.6991556 102.308205,20.6991556 L102.308205,20.6991556 Z" id="Fill-46" fill="#00AEEF"></path>
                <path d="M124.466646,17.0976167 C124.466646,17.6821167 124.382239,18.2125611 124.214188,18.68895 C124.045374,19.1653389 123.745938,19.5721167 123.315499,19.9085056 C122.88506,20.2452833 122.295736,20.5085611 121.547147,20.6991167 C120.798557,20.8896722 119.844106,20.98495 118.683792,20.98495 C117.523478,20.98495 116.569026,20.8896722 115.820437,20.6991167 C115.071847,20.5085611 114.482142,20.2452833 114.051703,19.9085056 C113.621264,19.5721167 113.321828,19.1653389 113.153778,18.68895 C112.984963,18.2125611 112.900938,17.6821167 112.900938,17.0976167 L112.900938,7.66511667 C112.900938,7.42400556 112.953645,7.24939444 113.060204,7.14128333 C113.166,7.03356111 113.337488,6.97911667 113.574668,6.97911667 L116.512882,6.97911667 C116.749681,6.97911667 116.921169,7.03356111 117.027347,7.14128333 C117.133524,7.24939444 117.186613,7.42400556 117.186613,7.66511667 L117.186613,16.35445 C117.186613,16.6087833 117.280187,16.8215056 117.467334,16.9930056 C117.654481,17.1645056 118.072316,17.2500611 118.721221,17.2500611 C119.382348,17.2500611 119.806676,17.1645056 119.993824,16.9930056 C120.180971,16.8215056 120.274545,16.6087833 120.274545,16.35445 L120.274545,7.66511667 C120.274545,7.42400556 120.327633,7.24939444 120.433429,7.14128333 C120.539606,7.03356111 120.711095,6.97911667 120.948275,6.97911667 L123.792916,6.97911667 C124.029714,6.97911667 124.201584,7.03356111 124.307762,7.14128333 C124.413175,7.24939444 124.466646,7.42400556 124.466646,7.66511667 L124.466646,17.0976167 Z" id="Fill-48" fill="#00AEEF"></path>
                <path d="M132.663702,15.2113111 L132.663702,17.4598667 L135.096618,17.4598667 C135.333416,17.4598667 135.511015,17.3964778 135.630179,17.2693111 C135.748196,17.1425333 135.807396,16.9519778 135.807396,16.6976444 L135.807396,15.9544778 C135.807396,15.7005333 135.748196,15.5130889 135.630179,15.3921444 C135.511015,15.2715889 135.333416,15.2113111 135.096618,15.2113111 L132.663702,15.2113111 Z M132.663702,10.2187556 L132.663702,12.2767556 L134.254454,12.2767556 C134.491253,12.2767556 134.668852,12.2133667 134.788015,12.0862 C134.906033,11.9594222 134.965232,11.7684778 134.965232,11.5145333 L134.965232,10.9809778 C134.965232,10.7270333 134.906033,10.5364778 134.788015,10.4093111 C134.668852,10.2825333 134.491253,10.2187556 134.254454,10.2187556 L132.663702,10.2187556 Z M136.313076,20.6993111 L129.126234,20.6993111 C128.889435,20.6993111 128.717565,20.6452556 128.612152,20.5371444 C128.505592,20.4294222 128.452885,20.2548111 128.452885,20.0133111 L128.452885,7.66531111 C128.452885,7.4242 128.505592,7.2492 128.612152,7.14147778 C128.717565,7.03336667 128.889435,6.97931111 129.126234,6.97931111 L135.096618,6.97931111 C136.319187,6.97931111 137.223223,7.21731111 137.810255,7.6937 C138.396523,8.17047778 138.689465,8.90392222 138.689465,9.89481111 L138.689465,10.8094778 C138.689465,11.3430333 138.598947,11.7782 138.418293,12.1145889 C138.237638,12.4513667 137.959973,12.7025889 137.585678,12.8674778 C138.383919,12.9437 138.976679,13.2233111 139.363578,13.7059222 C139.750095,14.1889222 139.943735,14.8939778 139.943735,15.8210889 L139.943735,17.5742 C139.943735,18.6413111 139.646973,19.4292 139.054594,19.9370889 C138.462215,20.4449778 137.548248,20.6993111 136.313076,20.6993111 L136.313076,20.6993111 Z" id="Fill-50" fill="#00AEEF"></path>
                <path d="M153.7174,20.6992333 L144.191599,20.6992333 C143.954418,20.6992333 143.782548,20.6451778 143.677134,20.5370667 C143.570957,20.4293444 143.517868,20.2547333 143.517868,20.0132333 L143.517868,7.66523333 C143.517868,7.42412222 143.570957,7.24951111 143.677134,7.1414 C143.782548,7.03328889 143.954418,6.97923333 144.191599,6.97923333 L147.092383,6.97923333 C147.329182,6.97923333 147.501052,7.03328889 147.607229,7.1414 C147.712643,7.24951111 147.766114,7.42412222 147.766114,7.66523333 L147.766114,17.0977333 L150.330033,17.0977333 L150.330033,14.0107333 C150.330033,13.7696222 150.383122,13.5946222 150.489299,13.4869 C150.595095,13.3787889 150.766583,13.3247333 151.004145,13.3247333 L153.7174,13.3247333 C153.954199,13.3247333 154.125687,13.3787889 154.232247,13.4869 C154.338042,13.5946222 154.391131,13.7696222 154.391131,14.0107333 L154.391131,20.0132333 C154.391131,20.2547333 154.338042,20.4293444 154.232247,20.5370667 C154.125687,20.6451778 153.954199,20.6992333 153.7174,20.6992333" id="Fill-52" fill="#00AEEF"></path>
                <path d="M158.396085,20.6992333 C158.158904,20.6992333 157.987416,20.6451778 157.881239,20.5370667 C157.775061,20.4293444 157.721973,20.2547333 157.721973,20.0132333 L157.721973,17.7456222 C157.721973,17.5045111 157.775061,17.3295111 157.881239,17.2217889 C157.987416,17.1136778 158.158904,17.0596222 158.396085,17.0596222 L160.248844,17.0596222 L160.248844,10.6569556 L158.396085,10.6569556 C158.158904,10.6569556 157.987416,10.6032889 157.881239,10.4951778 C157.775061,10.3870667 157.721973,10.2124556 157.721973,9.97095556 L157.721973,7.66523333 C157.721973,7.42412222 157.775061,7.24951111 157.881239,7.1414 C157.987416,7.03328889 158.158904,6.97923333 158.396085,6.97923333 L166.368564,6.97923333 C166.605362,6.97923333 166.776851,7.03328889 166.883028,7.1414 C166.988824,7.24951111 167.042294,7.42412222 167.042294,7.66523333 L167.042294,9.97095556 C167.042294,10.2124556 166.988824,10.3870667 166.883028,10.4951778 C166.776851,10.6032889 166.605362,10.6569556 166.368564,10.6569556 L164.553234,10.6569556 L164.553234,17.0596222 L166.368564,17.0596222 C166.605362,17.0596222 166.776851,17.1136778 166.883028,17.2217889 C166.988824,17.3295111 167.042294,17.5045111 167.042294,17.7456222 L167.042294,20.0132333 C167.042294,20.2547333 166.988824,20.4293444 166.883028,20.5370667 C166.776851,20.6451778 166.605362,20.6992333 166.368564,20.6992333 L158.396085,20.6992333 Z" id="Fill-54" fill="#00AEEF"></path>
                <path d="M177.091803,20.6992333 L171.177946,20.6992333 C170.940765,20.6992333 170.768895,20.6451778 170.6631,20.5370667 C170.557304,20.4293444 170.504215,20.2547333 170.504215,20.0132333 L170.504215,17.7837333 C170.504215,17.5426222 170.557304,17.3680111 170.6631,17.2595111 C170.768895,17.1517889 170.940765,17.0977333 171.177946,17.0977333 L176.212211,17.0977333 C176.37415,17.0977333 176.495605,17.0440667 176.576957,16.9355667 C176.657927,16.8278444 176.698794,16.6975667 176.698794,16.5451222 C176.698794,16.3292889 176.657927,16.1706222 176.576957,16.0687333 C176.495605,15.9672333 176.37415,15.9100667 176.212211,15.8972333 L173.405,15.4970667 C172.531518,15.3702889 171.829906,15.0778444 171.299401,14.6205111 C170.768895,14.1631778 170.504215,13.4009556 170.504215,12.3338444 L170.504215,10.3330111 C170.504215,9.25345556 170.847192,8.42473333 171.533526,7.84645556 C172.219478,7.26817778 173.167819,6.97923333 174.378166,6.97923333 L179.618293,6.97923333 C179.855092,6.97923333 180.026962,7.03328889 180.133139,7.1414 C180.238553,7.24951111 180.292024,7.42412222 180.292024,7.66523333 L180.292024,9.93284444 C180.292024,10.1743444 180.238553,10.3489556 180.133139,10.4570667 C180.026962,10.5647889 179.855092,10.6188444 179.618293,10.6188444 L175.257759,10.6188444 C175.095437,10.6188444 174.970545,10.6729 174.883464,10.7810111 C174.796001,10.8887333 174.752461,11.0256222 174.752461,11.1905111 C174.752461,11.3557889 174.796001,11.4954 174.883464,11.6097333 C174.970545,11.7240667 175.095437,11.7878444 175.257759,11.8002889 L178.046255,12.1814 C178.919355,12.3085667 179.624404,12.6006222 180.16102,13.0579556 C180.697255,13.5152889 180.965754,14.2775111 180.965754,15.3446222 L180.965754,17.3454556 C180.965754,18.4254 180.619341,19.2541222 179.927277,19.8324 C179.23445,20.4102889 178.289547,20.6992333 177.091803,20.6992333" id="Fill-56" fill="#00AEEF"></path>
                <path d="M188.07724,20.6992333 L185.176074,20.6992333 C184.939275,20.6992333 184.767405,20.6451778 184.661991,20.5370667 C184.555432,20.4293444 184.502725,20.2547333 184.502725,20.0132333 L184.502725,7.66523333 C184.502725,7.42412222 184.555432,7.24951111 184.661991,7.1414 C184.767405,7.03328889 184.939275,6.97923333 185.176074,6.97923333 L188.07724,6.97923333 C188.314039,6.97923333 188.485527,7.03328889 188.592087,7.1414 C188.6975,7.24951111 188.750971,7.42412222 188.750971,7.66523333 L188.750971,11.8002889 L191.87595,11.8002889 L191.87595,7.66523333 C191.87595,7.42412222 191.929039,7.24951111 192.035216,7.1414 C192.141394,7.03328889 192.312882,6.97923333 192.550063,6.97923333 L195.450465,6.97923333 C195.687646,6.97923333 195.859134,7.03328889 195.965312,7.1414 C196.071107,7.24951111 196.124196,7.42412222 196.124196,7.66523333 L196.124196,20.0132333 C196.124196,20.2547333 196.071107,20.4293444 195.965312,20.5370667 C195.859134,20.6451778 195.687646,20.6992333 195.450465,20.6992333 L192.550063,20.6992333 C192.312882,20.6992333 192.141394,20.6451778 192.035216,20.5370667 C191.929039,20.4293444 191.87595,20.2547333 191.87595,20.0132333 L191.87595,15.7829 L188.750971,15.7829 L188.750971,20.0132333 C188.750971,20.2547333 188.6975,20.4293444 188.592087,20.5370667 C188.485527,20.6451778 188.314039,20.6992333 188.07724,20.6992333" id="Fill-58" fill="#00AEEF"></path>
                <path d="M200.578265,20.6992333 C200.341085,20.6992333 200.169597,20.6451778 200.063419,20.5370667 C199.957624,20.4293444 199.904535,20.2547333 199.904535,20.0132333 L199.904535,17.7456222 C199.904535,17.5045111 199.957624,17.3295111 200.063419,17.2217889 C200.169597,17.1136778 200.341085,17.0596222 200.578265,17.0596222 L202.431406,17.0596222 L202.431406,10.6569556 L200.578265,10.6569556 C200.341085,10.6569556 200.169597,10.6032889 200.063419,10.4951778 C199.957624,10.3870667 199.904535,10.2124556 199.904535,9.97095556 L199.904535,7.66523333 C199.904535,7.42412222 199.957624,7.24951111 200.063419,7.1414 C200.169597,7.03328889 200.341085,6.97923333 200.578265,6.97923333 L208.551126,6.97923333 C208.787543,6.97923333 208.959031,7.03328889 209.065208,7.1414 C209.171004,7.24951111 209.224857,7.42412222 209.224857,7.66523333 L209.224857,9.97095556 C209.224857,10.2124556 209.171004,10.3870667 209.065208,10.4951778 C208.959031,10.6032889 208.787543,10.6569556 208.551126,10.6569556 L206.735414,10.6569556 L206.735414,17.0596222 L208.551126,17.0596222 C208.787543,17.0596222 208.959031,17.1136778 209.065208,17.2217889 C209.171004,17.3295111 209.224857,17.5045111 209.224857,17.7456222 L209.224857,20.0132333 C209.224857,20.2547333 209.171004,20.4293444 209.065208,20.5370667 C208.959031,20.6451778 208.787543,20.6992333 208.551126,20.6992333 L200.578265,20.6992333 Z" id="Fill-60" fill="#00AEEF"></path>
                <path d="M216.504584,20.6992333 L213.69661,20.6992333 C213.460193,20.6992333 213.287941,20.6451778 213.182909,20.5370667 C213.075968,20.4293444 213.023261,20.2547333 213.023261,20.0132333 L213.023261,7.66523333 C213.023261,7.42412222 213.075968,7.24951111 213.182909,7.1414 C213.287941,7.03328889 213.460193,6.97923333 213.69661,6.97923333 L215.643706,6.97923333 C215.880123,6.97923333 216.08293,7.01734444 216.251744,7.09356667 C216.420177,7.16978889 216.585172,7.30317778 216.747876,7.49373333 L220.378535,11.7240667 L220.378535,7.66523333 C220.378535,7.42412222 220.431242,7.24951111 220.537419,7.1414 C220.643215,7.03328889 220.814703,6.97923333 221.051884,6.97923333 L223.859095,6.97923333 C224.096275,6.97923333 224.267763,7.03328889 224.373941,7.1414 C224.479736,7.24951111 224.532825,7.42412222 224.532825,7.66523333 L224.532825,20.0132333 C224.532825,20.2547333 224.479736,20.4293444 224.373941,20.5370667 C224.267763,20.6451778 224.096275,20.6992333 223.859095,20.6992333 L221.051884,20.6992333 C220.814703,20.6992333 220.643215,20.6451778 220.537419,20.5370667 C220.431242,20.4293444 220.378535,20.2547333 220.378535,20.0132333 L220.378535,17.6694 L217.178315,13.7249 L217.178315,20.0132333 C217.178315,20.2547333 217.125226,20.4293444 217.019431,20.5370667 C216.912489,20.6451778 216.741001,20.6992333 216.504584,20.6992333" id="Fill-62" fill="#00AEEF"></path>
                <path d="M238.905897,20.6992333 L233.010373,20.6992333 C231.450556,20.6992333 230.29368,20.3819 229.53898,19.7464556 C228.783897,19.1114 228.406547,18.1333444 228.406547,16.8119 L228.406547,10.8665667 C228.406547,9.54551111 228.783897,8.56745556 229.53898,7.93201111 C230.29368,7.29695556 231.450556,6.97923333 233.010373,6.97923333 L237.689057,6.97923333 C237.92662,6.97923333 238.098108,7.03328889 238.203903,7.1414 C238.309699,7.24951111 238.362788,7.42412222 238.362788,7.66523333 L238.362788,9.97095556 C238.362788,10.2124556 238.309699,10.3870667 238.203903,10.4951778 C238.098108,10.6032889 237.92662,10.6569556 237.689057,10.6569556 L233.796774,10.6569556 C233.409493,10.6569556 233.123043,10.7362889 232.935896,10.8953444 C232.748748,11.0540111 232.654793,11.2924 232.654793,11.6097333 L232.654793,16.1640111 C232.654793,16.4817333 232.726214,16.7166222 232.870203,16.8690667 C233.013428,17.0215111 233.228457,17.0977333 233.515671,17.0977333 L235.331382,17.0977333 L235.331382,14.1250667 C235.331382,13.8839556 235.384089,13.7089556 235.490266,13.6012333 C235.596062,13.4931222 235.76755,13.4390667 236.004731,13.4390667 L238.905897,13.4390667 C239.142314,13.4390667 239.313802,13.4931222 239.420743,13.6012333 C239.526539,13.7089556 239.579628,13.8839556 239.579628,14.1250667 L239.579628,20.0132333 C239.579628,20.2547333 239.526539,20.4293444 239.420743,20.5370667 C239.313802,20.6451778 239.142314,20.6992333 238.905897,20.6992333" id="Fill-64" fill="#00AEEF"></path>
            </g>
        </g>
    </g>
</svg>